<?xml version="1.0" encoding="UTF-8"?>
<svg width="697px" height="697px" viewBox="0 0 697 697" version="1.1" xmlns="http://www.w3.org/2000/svg" xmlns:xlink="http://www.w3.org/1999/xlink">
  <path d="M325.5,696.203789 C304.6,694.203789 297.7,693.303789 286,691.203789 C207.3,676.803789 136.6,636.303789 84.5,575.803789 C-7.6,468.803789 -26.2,317.003789 37.4,191.303789 C87.1,93.2037894 178.3,25.0037894 286,5.40378944 C309.1,1.20378944 320.1,0.303789442 348,0.303789442 C375.9,0.303789442 386.8,1.20378944 410,5.40378944 C544.1,29.7037894 652.2,130.703789 685.4,262.803789 C715.7,383.103789 680.3,509.803789 592.2,596.603789 C537.3,650.703789 467.7,684.303789 389.8,694.303789 C378.2,695.803789 334.7,697.103789 325.5,696.203789 Z M441,621.803789 C534.4,613.403789 615.6,557.703789 658.1,472.803789 C671.7,445.603789 680.3,417.803789 685.2,385.303789 C687,373.103789 687,323.503789 685.2,311.303789 C680.3,278.703789 671.7,251.003789 658,223.703789 C605.7,119.003789 494.7,60.2037894 380.8,76.8037894 C294.6,89.4037894 220,144.103789 180.1,223.803789 C160.5,263.103789 151,303.603789 151,348.303789 C151,393.003789 160.5,433.503789 180.1,472.803789 C222.6,557.603789 303.8,613.503789 396.7,621.703789 C409.9,622.903789 428.1,622.903789 441,621.803789 Z" id="Shape" fill="#000000" fill-rule="nonzero" transform="translate(348.009589, 348.401895) scale(-1, 1) rotate(-180.000000) translate(-348.009589, -348.401895) "></path>
  <path d="M446,566.449452 C406.2,562.349452 369.8,548.149452 337.8,524.049452 C326.6,515.649452 305,493.849452 296.3,482.149452 C274.2,452.349452 260.4,419.449452 254.3,382.049452 C251.9,367.549452 251.9,329.749452 254.3,315.249452 C262.2,266.749452 282.5,226.649452 316.5,192.549452 C334.7,174.249452 350.1,163.049452 372.1,151.949452 C418.8,128.649452 475.2,123.749452 524.8,138.749452 C548,145.749452 571.3,157.549452 590.7,171.949452 C601.8,180.249452 621.1,199.049452 630,210.149452 C653.4,239.549452 668.8,274.249452 675.7,313.649452 C678.2,327.849452 678.2,369.449452 675.7,383.649452 C668.8,423.049452 653.4,457.749452 630,487.149452 C621.1,498.249452 601.8,517.049452 590.7,525.349452 C553.7,552.949452 509.4,567.449452 464.2,566.949452 C456.1,566.949452 447.9,566.649452 446,566.449452 Z M546.1,506.149452 C587.4,497.449452 623,472.449452 645.9,436.049452 C656.4,419.249452 665.2,395.649452 668.5,375.149452 C670.8,361.049452 670.8,336.249452 668.5,322.149452 C660.1,270.849452 627.9,226.149452 583.5,204.149452 C570.1,197.549452 560.4,194.149452 545.6,190.949452 C531,187.749452 503.9,187.849452 489,191.049452 C458,197.649452 434.6,210.349452 411.9,233.049452 C372.4,272.549452 356.4,326.549452 367.6,382.649452 C373.8,413.449452 388.8,441.049452 411.9,464.249452 C437.1,489.449452 465,503.349452 500,508.149452 C510.3,509.549452 535.1,508.549452 546.1,506.149452 Z" id="Shape" fill="#000000" fill-rule="nonzero" transform="translate(465.037500, 348.574726) scale(-1, 1) rotate(-180.000000) translate(-465.037500, -348.574726) "></path>
  <path d="M522.7,466.449451 C490.3,460.649451 460.5,439.249451 443.6,409.849451 L440.9,405.149451 L445.7,404.549451 C459.3,402.849451 469.1,398.149451 478.6,388.649451 C489.8,377.449451 495,364.649451 495,348.549451 C495,332.449451 489.8,319.649451 478.6,308.449451 C469.1,298.949451 459.3,294.249451 445.7,292.549451 L440.9,291.949451 L443.6,287.249451 C467.3,245.949451 514,222.949451 559,230.549451 C569.3,232.249451 582.8,236.449451 590.5,240.249451 C622.4,256.349451 645.7,287.249451 653.6,324.249451 C656.1,335.749451 656.1,361.349451 653.6,372.849451 C644.3,416.249451 614.9,449.949451 575,462.849451 C559.5,467.949451 538.6,469.349451 522.7,466.449451 Z" id="Path" fill="#000000" fill-rule="nonzero" transform="translate(548.187500, 348.524726) scale(-1, 1) rotate(-180.000000) translate(-548.187500, -348.524726) "></path>
</svg>
