<?xml version="1.0" encoding="UTF-8"?>
<svg width="1395px" height="1395px" viewBox="0 0 1395 1395" version="1.1" xmlns="http://www.w3.org/2000/svg" xmlns:xlink="http://www.w3.org/1999/xlink">
  <path d="M665.5,1393.25577 C664.9,1392.75577 657.3,1391.85577 648.5,1391.25577 C625.3,1389.65577 597.2,1386.45577 586,1384.15577 C583.5,1383.65577 578.4,1382.75577 574.5,1382.15577 C554.1,1378.75577 518.5,1370.35577 499.5,1364.45577 C488.9,1361.15577 462.2,1352.15577 457,1350.15577 C454,1348.95577 450.4,1347.65577 449,1347.25577 C446.9,1346.55577 435.6,1341.95577 425.5,1337.65577 C407.6,1329.95577 366,1309.35577 357.3,1303.85577 C354.9,1302.35577 352.8,1301.15577 352.6,1301.15577 C352.2,1301.15577 340.5,1294.05577 330.5,1287.85577 C302.8,1270.45577 272,1248.05577 251.4,1230.15577 C249.2,1228.25577 244.9,1224.65577 242,1222.15577 C230.1,1212.25577 203.3,1186.25577 187.9,1169.65577 C162.4,1142.05577 133,1104.25577 115.1,1075.65577 C112.6,1071.85577 109.2,1066.45577 107.5,1063.65577 C101.8,1054.65577 93.8,1041.15577 89.3,1032.85577 C85.3,1025.35577 65,984.355766 63,979.655766 C62.5,978.555766 60.3,973.455766 58.1,968.355766 C55.8,963.355766 54,958.555766 54,957.855766 C54,957.155766 53.6,956.155766 53.2,955.655766 C52,954.255766 42.5,928.855766 38.6,916.655766 C37.7,913.955766 36,908.755766 34.9,905.155766 C33.7,901.555766 32.2,896.455766 31.5,893.655766 C30.7,890.955766 29,884.655766 27.6,879.655766 C23.4,865.455766 18.2,841.955766 14,819.155766 C12.5,811.455766 11.3,803.155766 9,785.155766 C7.9,776.655766 6.5,766.055766 5.9,761.655766 C4.3,749.755766 3.5,668.255766 4.9,646.055766 C7.1,609.155766 15.2,559.555766 24.9,522.155766 C25.4,520.255766 26.6,515.755766 27.5,512.155766 C30.4,501.055766 43.8,458.955766 46.5,452.655766 C47.2,451.055766 48.4,447.855766 49.3,445.655766 C52.2,438.055766 63,412.155766 66.1,405.455766 C70.7,395.155766 86.7,363.655766 89.5,359.155766 C90.9,356.955766 92,354.955766 92,354.655766 C92,354.255766 98.6,342.855766 101,339.155766 C101.6,338.355766 102.3,336.955766 102.7,336.155766 C103.5,334.355766 113.8,318.355766 123.3,304.155766 C140.3,278.955766 164.8,247.755766 185.5,225.255766 C202.4,206.755766 224.4,185.355766 242.4,169.655766 C245.6,166.955766 249.3,163.655766 250.6,162.455766 C253.9,159.655766 259,155.455766 267,149.255766 C270.6,146.455766 274,143.755766 274.6,143.255766 C279.4,139.355766 301.1,123.655766 312.6,115.855766 C338.1,98.5557664 366.3,82.3557664 395.8,68.0557664 C404.8,63.7557664 412.3,60.1557664 412.5,60.1557664 C412.7,60.1557664 415.7,58.8557664 419.2,57.2557664 C422.7,55.7557664 430.2,52.5557664 436,50.2557664 C441.8,47.8557664 449.2,44.8557664 452.5,43.5557664 C455.8,42.2557664 459.1,41.1557664 459.8,41.1557664 C460.6,41.1557664 462.4,40.4557664 463.8,39.6557664 C466.3,38.3557664 483.1,32.7557664 496.5,28.7557664 C499.8,27.7557664 504.3,26.3557664 506.5,25.6557664 C510.8,24.2557664 526.1,20.3557664 537.5,17.6557664 C541.4,16.7557664 546.3,15.5557664 548.5,15.0557664 C557.8,12.8557664 583.4,8.25576639 594.5,6.75576639 C601.1,5.85576639 609,4.65576639 612,4.15576639 C641.8,-1.14423361 743.1,-1.44423361 778,3.65576639 C779.4,3.85576639 784.3,4.45576639 789,5.05576639 C805.7,7.05576639 823.8,10.1557664 840,13.7557664 C843.6,14.5557664 848.5,15.6557664 851,16.1557664 C853.5,16.6557664 860.9,18.4557664 867.5,20.1557664 C874.1,21.8557664 881.3,23.7557664 883.5,24.2557664 C885.7,24.7557664 888.6,25.5557664 890,26.0557664 C891.4,26.5557664 895.2,27.7557664 898.5,28.6557664 C901.8,29.5557664 907.4,31.3557664 911,32.6557664 C914.6,33.8557664 920.4,35.8557664 924,36.9557664 C930,38.8557664 934.6,40.5557664 948.5,45.9557664 C955.6,48.6557664 970.5,54.8557664 977,57.8557664 C980,59.2557664 984.1,61.0557664 986,61.8557664 C991.1,64.0557664 1025,81.0557664 1028.5,83.1557664 C1030.2,84.1557664 1034.2,86.4557664 1037.5,88.3557664 C1078.6,111.155766 1126.3,145.555766 1163.5,179.255766 C1175.4,189.955766 1205,220.055766 1216.1,232.655766 C1244.2,264.555766 1270.5,300.255766 1291,334.155766 C1294.7,340.155766 1299.7,348.955766 1300.3,350.155766 C1300.7,350.955766 1301.8,353.055766 1302.8,354.655766 C1308,363.055766 1318.6,383.755766 1326.8,401.155766 C1332.4,412.955766 1337.4,424.955766 1347.5,450.655766 C1352.7,463.755766 1361.6,491.355766 1366,507.655766 C1366.5,509.355766 1367.7,513.855766 1368.8,517.655766 C1369.8,521.555766 1371.4,528.055766 1372.4,532.155766 C1373.3,536.255766 1374.5,541.255766 1375,543.155766 C1379,558.555766 1385.1,595.855766 1388.1,623.655766 C1393,669.855766 1392,749.555766 1386,786.655766 C1385.5,789.955766 1384.3,797.655766 1383.5,803.655766 C1380.6,824.055766 1371.5,866.955766 1366.9,881.655766 C1366.4,883.355766 1364.6,889.355766 1362.9,895.155766 C1357.2,914.555766 1345.9,947.255766 1342.1,955.655766 C1341.6,956.755766 1339.7,961.255766 1338,965.555766 C1336.2,969.955766 1334.4,974.255766 1334,975.055766 C1333.5,975.955766 1332.2,978.955766 1330.9,981.655766 C1327,990.555766 1311.2,1022.55577 1306.7,1030.75577 C1299,1044.45577 1297.9,1046.45577 1292.7,1055.15577 C1274.7,1085.35577 1250.9,1118.55577 1226,1148.15577 C1204.9,1173.25577 1170.6,1207.55577 1147.1,1227.15577 C1144.1,1229.65577 1140,1233.05577 1138.1,1234.65577 C1128.9,1242.55577 1113.3,1254.45577 1099.1,1264.65577 C1084,1275.35577 1053.7,1295.15577 1052.3,1295.15577 C1052,1295.15577 1050.9,1295.75577 1050.1,1296.55577 C1047.1,1299.05577 1024.6,1311.25577 1005,1320.85577 C996.5,1325.05577 987.9,1329.25577 986,1330.15577 C984.1,1331.15577 975.3,1334.95577 966.5,1338.65577 C957.7,1342.35577 949.7,1345.75577 948.8,1346.25577 C947.8,1346.75577 946.3,1347.15577 945.4,1347.15577 C944.5,1347.15577 942.6,1347.75577 941.2,1348.55577 C938.1,1350.05577 936.6,1350.65577 917.5,1357.25577 C887.8,1367.45577 848.3,1377.55577 819.5,1382.25577 C812.4,1383.35577 806.3,1384.45577 806,1384.65577 C805.4,1385.05577 787.7,1387.25577 771.5,1389.15577 C766.6,1389.65577 755.5,1390.65577 747,1391.15577 C738.5,1391.75577 730.7,1392.65577 729.8,1393.25577 C727.5,1394.45577 666.7,1394.45577 665.5,1393.25577 Z M747.5,1326.65577 C787.2,1323.45577 823.4,1317.35577 857.5,1308.15577 C864.1,1306.35577 870.9,1304.55577 872.5,1304.15577 C880,1302.15577 905.8,1293.65577 916,1289.75577 C929,1284.85577 932.7,1283.35577 942,1279.35577 C960.1,1271.75577 985.7,1259.35577 998.5,1252.15577 C1020.3,1239.95577 1027.6,1235.45577 1046.5,1222.95577 C1091.2,1193.25577 1138.5,1151.55577 1172.5,1111.75577 C1175.3,1108.55577 1179.3,1103.75577 1181.5,1101.25577 C1186.4,1095.45577 1203.1,1074.45577 1204.5,1072.25577 C1205.1,1071.45577 1207.8,1067.55577 1210.6,1063.65577 C1215.3,1057.05577 1223.7,1044.55577 1232.5,1030.65577 C1237.6,1022.65577 1246.4,1007.45577 1251.3,998.155766 C1253.5,994.055766 1256.8,988.055766 1258.6,984.855766 C1260.5,981.655766 1262,978.855766 1262,978.655766 C1262,978.455766 1263.6,974.755766 1265.6,970.455766 C1284.1,930.455766 1290.1,914.455766 1304.5,867.155766 C1306.8,859.755766 1312.8,834.455766 1314.9,823.155766 C1316.1,817.355766 1317.4,810.355766 1318,807.555766 C1320,797.955766 1324.1,766.555766 1325.7,748.155766 C1327.9,723.055766 1327.9,668.255766 1325.6,644.155766 C1323,615.455766 1321.4,603.355766 1317,579.155766 C1315.3,569.355766 1310.8,549.655766 1307.6,537.155766 C1301.7,514.355766 1293.4,488.255766 1287,472.155766 C1285.8,469.155766 1284.5,465.555766 1284.1,464.155766 C1282.1,457.755766 1268.7,428.055766 1261,412.655766 C1252.8,396.355766 1241.9,376.455766 1236.2,367.355766 C1223.5,347.155766 1219.5,341.055766 1211.7,330.155766 C1172.2,275.155766 1127.6,229.155766 1075.5,189.755766 C1068.9,184.755766 1061.3,179.155766 1058.5,177.255766 C1045.1,167.955766 1030.9,158.655766 1025.5,155.555766 C1022.2,153.555766 1015,149.355766 1009.5,146.155766 C996,138.155766 958.6,119.655766 942,112.655766 C920.7,103.655766 882.8,90.4557664 868.5,86.8557664 C867.4,86.5557664 861.1,84.9557664 854.5,83.1557664 C841,79.5557664 834.2,77.9557664 819,75.1557664 C813.2,74.0557664 806.3,72.7557664 803.5,72.2557664 C778.5,67.3557664 729.4,63.2557664 697.5,63.2557664 C678.6,63.2557664 643.2,65.3557664 624,67.5557664 C612.9,68.8557664 606.8,69.7557664 586,73.1557664 C573.2,75.1557664 539.9,82.9557664 525.5,87.1557664 C523.9,87.6557664 520.5,88.5557664 518,89.2557664 C511.4,91.0557664 468.9,105.755766 465.9,107.155766 C465,107.655766 460.4,109.555766 455.6,111.555766 C421,125.955766 374.1,151.155766 347.1,169.955766 C343.5,172.455766 337.1,176.955766 333,179.755766 C316.9,190.955766 301,203.655766 276.5,225.155766 C274.3,227.055766 264.9,236.055766 255.7,245.155766 C223.3,276.955766 191.5,316.155766 166.8,354.455766 C152.7,376.355766 133,412.655766 123.6,434.155766 C111.6,461.355766 108.3,469.855766 99.2,496.655766 C94,511.855766 87.7,533.855766 85.9,542.955766 C85.4,545.355766 84.8,547.655766 84.5,548.155766 C84.2,548.655766 83.6,550.955766 83.1,553.355766 C82.6,555.755766 81.3,562.355766 80.1,568.155766 C71,613.655766 67.5,649.255766 67.5,696.155766 C67.5,747.555766 72.4,791.455766 83.6,839.655766 C84.4,843.555766 85.6,848.455766 86,850.655766 C87.1,855.455766 95.4,884.355766 98.2,892.655766 C102.9,906.755766 111.3,929.755766 112.1,930.655766 C112.6,931.155766 113,932.155766 113,932.955766 C113,933.755766 114.3,937.255766 116,940.855766 C117.6,944.355766 119,947.555766 119,947.755766 C119,950.255766 143.4,998.855766 150.8,1011.15577 C152,1013.05577 153.7,1016.05577 154.6,1017.65577 C161.8,1030.85577 182.3,1061.35577 196.9,1080.55577 C218.7,1109.25577 253.7,1146.85577 281.7,1171.45577 C294.2,1182.45577 320.7,1203.85577 329.6,1210.05577 C362.3,1233.05577 387.6,1248.15577 419.5,1263.85577 C427.8,1267.95577 435.2,1271.65577 436.1,1272.15577 C438.4,1273.35577 468.9,1286.15577 469.5,1286.15577 C469.8,1286.15577 471.9,1286.95577 474.3,1287.95577 C476.6,1288.95577 480.1,1290.35577 482,1291.05577 C491.1,1294.15577 513,1301.35577 517.5,1302.65577 C520.3,1303.45577 524.8,1304.75577 527.5,1305.55577 C532.7,1307.05577 561.8,1314.25577 570.5,1316.05577 C573.3,1316.65577 581.1,1318.05577 588,1319.15577 C594.9,1320.25577 601.9,1321.45577 603.5,1321.75577 C608.9,1322.75577 627.4,1325.15577 633,1325.65577 C645.3,1326.55577 670.8,1328.25577 676,1328.45577 C691.3,1329.05577 730.7,1328.05577 747.5,1326.65577 Z" id="Shape" fill="#3A3A3A" fill-rule="nonzero" transform="translate(697.698936, 697.077883) scale(-1, 1) rotate(-180.000000) translate(-697.698936, -697.077883) "></path>
  <path d="M688,816.401363 C659.7,813.601363 635,804.601363 611,788.301363 C600.8,781.301363 585.1,766.901363 577.2,757.001363 C571.5,750.001363 562,736.201363 562,735.001363 C562,734.601363 561,732.701363 559.7,730.601363 C555.3,723.501363 550.1,710.201363 546.5,696.601363 C541.3,677.201363 541,670.401363 541,560.601363 C541,495.501363 541.4,456.701363 542,452.101363 C545.3,430.001363 548.9,417.701363 557.8,398.401363 C561.7,389.901363 575.1,369.701363 579.4,365.901363 C580,365.401363 582.3,362.901363 584.4,360.401363 C595.7,347.501363 614.2,333.701363 631,325.701363 C636.2,323.201363 641.4,320.701363 642.4,320.201363 C645.6,318.501363 658.1,314.401363 664.5,313.001363 C679.1,309.601363 689.6,308.401363 704.5,308.401363 C731.6,308.401363 754.8,313.801363 778.5,325.701363 C803.5,338.101363 827.9,359.901363 842.5,382.901363 C846,388.401363 854.3,404.001363 855.3,407.001363 C855.7,408.101363 856.6,410.701363 857.5,412.901363 C861.8,423.701363 864.7,435.401363 866.5,449.201363 C867.9,459.601363 868,475.501363 867.7,568.601363 C867.4,647.401363 867,677.401363 866.1,681.401363 C862.2,699.401363 861,703.701363 856.8,714.201363 C836.3,766.001363 791.4,803.101363 735.7,814.501363 C724.3,816.801363 701.2,817.701363 688,816.401363 Z M730.2,753.601363 C767.5,743.101363 793.8,716.601363 803.8,679.401363 C805.4,673.401363 805.501183,664.301363 805.501183,562.901363 C805.501183,446.501363 805.7,451.701363 800.9,437.201363 C791.3,408.101363 766.7,383.901363 736.5,373.901363 C728,371.101363 712.6,368.401363 705.1,368.401363 C684.2,368.401363 660.5,376.401363 642.9,389.501363 C623.1,404.201363 610.5,423.901363 604.9,449.301363 C603.1,457.301363 603,463.701363 603,562.901363 C603,662.101363 603.1,668.501363 604.9,676.501363 C605.9,681.101363 607.9,687.901363 609.3,691.501363 C621.4,723.201363 649,746.901363 682.5,754.501363 C694.1,757.101363 719.4,756.601363 730.2,753.601363 Z" id="Shape" fill="#3A3A3A" fill-rule="nonzero" transform="translate(704.419099, 562.700682) scale(-1, 1) rotate(-180.000000) translate(-704.419099, -562.700682) "></path>
  <path d="M445.5,1109.53687 C439.1,1106.63687 432.1,1098.83687 429.7,1092.13687 C427.9,1087.33687 427.8,1083.93687 428.3,1042.23687 C428.8,995.736874 429.2,989.636874 433.9,966.436874 C451.9,877.336874 517,800.336874 602.4,767.036874 C609.1,764.436874 616.5,761.736874 619,761.036874 C621.5,760.236874 624.9,759.236874 626.5,758.736874 C632.2,757.036874 655.5,752.136874 661.5,751.436874 C664.8,751.036874 668.1,750.236874 668.8,749.736874 C670.6,748.236874 670.6,628.636874 668.7,627.136874 C667.8,626.336874 651.7,625.936874 619,625.736874 C571.4,625.436874 570.4,625.436874 566.4,623.236874 C561.2,620.436874 555.3,613.936874 552.8,608.136874 C551.1,604.436874 550.9,602.236874 551.3,596.036874 C551.9,586.736874 554.3,581.636874 560.5,576.136874 C569.2,568.436874 560.1,568.936874 699.2,568.936874 C829.4,568.936874 825.5,568.836874 833.7,573.236874 C837.4,575.236874 843.1,582.036874 845.1,586.936874 C845.9,588.936874 846.5,593.836874 846.4,598.436874 C846.4,605.736874 846.1,606.936874 843.1,611.636874 C839.2,618.036874 834.1,622.136874 827.7,624.336874 C823.6,625.736874 816.7,625.936874 776.7,625.936874 C751.3,625.936874 729.9,626.336874 729.2,626.736874 C728.2,627.436874 728,640.536874 728.2,688.936874 L728.5,750.336874 L737.5,751.636874 C745.5,752.736874 752.4,754.036874 765.7,756.936874 C771.6,758.236874 800.1,767.836874 802.5,769.336874 C803.6,769.936874 807.7,771.836874 811.5,773.436874 C817.7,776.036874 823.8,779.236874 837.4,786.836874 C843,790.036874 855.5,798.536874 863,804.336874 C907.3,838.336874 939.1,883.336874 956.5,936.436874 C958.5,942.536874 960.5,949.236874 961,951.436874 C961.4,953.636874 962.7,959.636874 963.9,964.736874 C968.4,984.936874 969,995.036874 969,1043.83687 C969.1,1087.23687 968.9,1090.23687 967.1,1094.33687 C960.3,1109.83687 943,1116.23687 928.2,1108.83687 C921,1105.33687 916.8,1100.53687 914,1093.13687 C912.1,1088.23687 912,1085.23687 912,1048.13687 C912,1006.53687 911.2,995.136874 907,975.436874 C897,928.636874 870.1,884.536874 833.5,854.736874 C818.5,842.536874 797.3,829.536874 782.5,823.336874 C780.3,822.436874 777.6,821.336874 776.5,820.836874 C772,818.836874 753,812.936874 746,811.436874 C716.5,805.036874 685.5,804.836874 654,810.836874 C633.8,814.736874 603.3,827.236874 584.5,839.536874 C581.2,841.636874 577.8,843.836874 576.9,844.436874 C565.7,851.236874 541.8,874.036874 531.7,887.336874 C528.4,891.836874 525.3,895.636874 525,895.936874 C523.7,896.936874 512.7,915.536874 508.4,923.836874 C498.6,942.736874 491.2,966.336874 487.8,988.936874 C487.3,992.536874 486.5,1016.83687 486.1,1042.93687 C485.3,1096.93687 485.6,1095.53687 476.8,1103.53687 C467.6,1112.03687 455.7,1114.33687 445.5,1109.53687 Z" id="Path" fill="#3A3A3A" fill-rule="nonzero" transform="translate(698.530645, 840.468437) scale(-1, 1) rotate(-180.000000) translate(-698.530645, -840.468437) "></path>
</svg>
