<?xml version="1.0" encoding="UTF-8"?>
<svg width="733px" height="985px" viewBox="0 0 733 985" version="1.1" xmlns="http://www.w3.org/2000/svg" xmlns:xlink="http://www.w3.org/1999/xlink">
    <!-- Generator: Sketch 63.1 (92452) - https://sketch.com -->
    <title>origin</title>
    <desc>Created with Sketch.</desc>
    <defs>
        <radialGradient cx="12.7684475%" cy="29.111447%" fx="12.7684475%" fy="29.111447%" r="125.091951%" gradientTransform="translate(0.127684,0.291114),scale(1.000000,0.796315),rotate(90.000000),translate(-0.127684,-0.291114)" id="radialGradient-1">
            <stop stop-color="#F09873" offset="0%"></stop>
            <stop stop-color="#CF6A40" offset="99.9445735%"></stop>
        </radialGradient>
    </defs>
    <g id="Page-1" stroke="none" stroke-width="1" fill="none" fill-rule="evenodd">
        <path d="M547.064482,42 C523.761982,357.718333 725,410.701667 725,654.580832 C725,779.261077 655.288914,888.922618 536.322223,942.396893 C540.373388,937.921275 544.278529,933.282312 548.032609,928.473684 C569.155797,901.416842 585.097826,870.977895 595.858696,837.156842 C606.619565,803.335789 612,768.917895 612,733.903158 C612,697.296842 606.221014,661.884211 594.663043,627.665263 C583.105072,593.446316 566.764493,563.206316 545.641304,536.945263 C524.518116,510.684211 498.612319,489.794737 467.923913,474.276842 C437.235507,458.758947 402.76087,451 364.5,451 C324.644928,451 289.173913,459.156842 258.086957,475.470526 C227,491.784211 201.094203,513.270526 180.369565,539.929474 C159.644928,566.588421 143.902174,596.828421 133.141304,630.649474 C122.380435,664.470526 117,698.888421 117,733.903158 C117,770.509474 122.57971,805.922105 133.73913,840.141053 C144.898551,874.36 161.039855,904.6 182.163043,930.861053 C182.745638,931.585354 183.331871,932.30572 183.921741,933.022151 L183.91541,933.030067 C72.3311504,871.760039 8,752.772152 8,616.596456 C8,450.906668 89.5786605,302.3975 246.999982,186.730208 C240.326752,231.837308 258.020161,342.097736 292.688821,375.405417 C325.790339,141.304792 503.168142,42.70125 547.064482,42 Z" id="origin" fill="url(#radialGradient-1)" fill-rule="nonzero"></path>
    </g>
</svg>