<?xml version="1.0" encoding="UTF-8"?>
<svg width="985px" height="985px" viewBox="0 0 985 985" version="1.1" xmlns="http://www.w3.org/2000/svg" xmlns:xlink="http://www.w3.org/1999/xlink">
  <defs>
    <circle id="path-1" cx="507.5" cy="507.5" r="507.5"></circle>
  </defs>
  <g stroke="none" stroke-width="1" fill="none" fill-rule="evenodd">
    <g id="masked-fist" transform="translate(-15.000000, 0.000000)">
      <g id="Group">
        <g id="Fiast-Clipped">
          <mask id="mask-2" fill="white">
            <use xlink:href="#path-1"></use>
          </mask>
          <g id="path-3"></g>
          <path d="M569.747939,1010.84609 C563.51437,1008.58852 546.710836,1002.44795 532.256184,997.210409 C421.497409,957.116103 335.401885,921.085409 296.916372,898.870996 L289.960071,894.897687 L288.966313,888.757117 C287.430506,879.726868 283.003769,854.351868 279.390106,833.943505 C277.673616,824.010231 275.415077,811.187278 274.421319,805.498221 C273.427562,799.809164 270.536631,783.37411 268.007067,768.925712 C265.477503,754.567616 262.405889,736.868327 261.141107,729.644128 C257.527444,708.242438 257.256419,707.068505 255.449588,707.068505 C252.920024,707.068505 236.568198,701.740658 227.353357,697.857651 C216.873734,693.523132 200.792933,685.125 189.861602,678.262011 L181.821201,673.205071 L180.737102,664.626335 C180.104711,659.930605 178.117197,644.037367 176.310365,629.408363 C174.503534,614.779359 172.244994,596.718861 171.341578,589.223754 C163.752886,530.978648 162.30742,517.072064 163.662544,516.259342 C166.914841,514.453292 258.792226,452.957295 269.091166,445.642794 C275.415077,441.127669 280.654888,437.064057 280.654888,436.522242 C280.74523,433.361655 251.384217,373.220196 236.477856,346.129448 C203.412839,285.807384 169.896113,238.037367 138.728269,206.792705 C127.074205,195.143683 103.31437,173.741993 89.8534747,162.815391 L81.0903416,155.771797 L81.0903416,142.316726 L81,128.951957 L85.2460542,132.383452 C148.846525,183.494662 177.213781,213.384786 213.531095,267.746886 C235.935807,301.339413 254.636514,334.390125 279.02874,383.695285 C289.508363,404.735765 293.754417,412.592082 294.386808,411.689057 C294.838516,410.966637 296.464664,407.986655 298.000471,405.006673 C304.956773,391.461299 320.134158,367.531139 331.788221,351.6379 C346.784923,331.229537 372.622615,304.319395 390.871614,290.232206 C426.466196,262.689947 465.132391,245.983986 506.328151,240.204626 C513.103769,239.301601 523.673734,238.398577 529.816961,238.308274 C535.869847,238.217972 540.838634,237.856762 540.838634,237.585854 C540.838634,236.682829 523.583392,216.455071 510.754888,202.187278 C489.072909,178.076512 450.587397,140.510676 423.84629,117.393238 C380.301649,79.6467972 326.458068,40.636121 278.848057,12.2811388 C269.181508,6.59208185 260.599058,1.44483986 259.876325,0.993327402 C258.972909,0.361209964 265.477503,0.0903024911 278.667373,0.0903024911 L298.813545,-2.84217094e-13 L307.576678,5.59875445 C374.881154,48.3118327 433.061131,94.3661032 487.627444,148.186388 C516.085041,176.270463 545.988104,209.501779 563.875736,232.980427 C569.296231,240.114324 569.025206,239.933719 574.716726,240.656139 C581.311661,241.468861 598.566902,245.622776 602.45159,247.338523 C611.124382,251.131228 666.865135,315.968416 705.350648,367.079626 C741.577621,415.210854 783.496113,479.23532 808.701413,525.108986 C819.271378,544.343416 830.293051,565.203292 838.604476,581.999555 L848,600.963078 L844.928386,610.896352 C831.015783,655.325178 807.707656,711.764235 783.405771,759.895463 C733.53722,858.41548 676.170318,936.075623 611.57609,992.51468 C596.037338,1006.15036 584.654299,1015 582.757126,1015 C581.763369,1014.9097 575.981508,1013.10365 569.747939,1010.84609 Z M593.592704,981.250615 C616.80926,961.384259 636.050998,941.879109 657.822166,916.414052 C708.77212,856.634379 756.650623,776.44654 794.953425,686.596428 C809.316976,652.823622 824.583894,610.833368 822.867495,609.749749 C822.325475,609.478844 818.350655,608.937034 814.104826,608.575828 C787.274797,606.498891 734.608444,598.010538 701.45484,590.244599 C682.484112,585.910121 657.370482,579.047198 658.00284,578.505388 C658.183514,578.324785 664.7781,579.318103 672.637401,580.85323 C700.280461,586.181026 731.536993,589.883392 768.30407,592.140933 C799.921949,594.127569 821.151096,594.75968 821.151096,593.676061 C821.151096,592.231235 804.709799,560.535366 792.695005,538.953279 C741.654714,447.206832 673.992453,353.202846 605.065477,278.433104 L593.863714,266.242385 L586.275423,264.346051 C558.903373,257.483128 525.117411,257.212223 494.13189,263.623638 C483.833495,265.790877 467.663208,270.938069 457.093803,275.45315 C403.614419,298.118857 359.801072,340.199412 322.040291,405.216579 C319.872207,408.918945 319.781871,409.460755 321.227259,408.64804 C323.305006,407.474119 349.14133,386.795048 355.735916,380.925443 L360.433429,376.681267 L363.053197,382.460571 C364.498585,385.530826 375.881022,409.460755 388.3475,435.467622 L411.022036,482.695369 L417.435949,504.096853 C421.04942,515.836064 424.211208,525.67894 424.482219,526.040147 C424.753229,526.401353 432.793204,520.712351 442.188231,513.488222 C465.224114,495.698802 509.218135,461.384187 527.556505,446.845626 C535.777153,440.343909 546.346558,431.945858 551.044072,428.243492 L559.626068,421.470871 L579.500163,429.327112 C590.430916,433.751891 601.813352,438.17667 604.794466,439.26029 C609.853327,441.066322 635.14763,453.708549 671.192012,472.400984 C686.549268,480.347527 690.343414,482.514766 688.717351,482.514766 C687.362299,482.514766 630.721127,466.260474 613.828146,461.02298 C605.878508,458.584836 591.243947,453.257041 581.397236,449.193468 C571.460188,445.129895 563.058866,441.879037 562.697519,441.879037 C562.336172,441.879037 556.825627,446.032911 550.502051,451.180104 C505.423989,487.21045 390.786593,575.615736 298.37205,645.509191 C281.298395,658.422322 271,666.730071 271,667.723389 C271,668.536104 271.993705,674.044503 273.348757,679.914108 C274.613472,685.874015 275.968524,692.736938 276.420208,695.175082 C277.684923,702.579815 290.874095,768.048489 291.777463,771.479951 C292.590495,774.369603 295.119925,793.784451 296.745987,808.052107 C297.288008,813.289601 301.082154,836.858324 303.882594,852.751409 C304.695625,856.995585 305.327983,860.968857 305.327983,861.600968 C305.327983,862.142778 305.68933,862.684588 306.141014,862.684588 C307.315393,862.684588 382.565945,802.453407 413.370793,776.898048 C472.270385,728.044872 510.48285,694.272066 542.462076,663.118007 C560.800446,645.147984 557.457985,649.663065 533.789744,674.766916 C492.14448,718.924408 411.925404,793.513546 325.021405,869.005701 C311.470885,880.744912 310.115833,882.189738 311.470885,883.273357 C316.98143,887.607835 360.343093,907.835398 393.40636,921.470942 C405.330818,926.437531 416.442244,931.042914 417.977969,931.765327 C429.992763,937.093123 509.308472,967.163562 550.140704,981.882726 C562.787856,986.397807 574.621976,990.641984 576.338375,991.364397 C578.145111,992.000812 580.042184,992.177111 580.855215,991.815905 C581.577909,991.364397 587.359464,986.668712 593.592704,981.250615 Z M255.913727,683.54357 C254.380393,678.474516 250.952942,658.379339 251.494119,657.926745 C251.945099,657.564669 259.701962,651.680946 268.901962,644.710997 C285.49804,632.30992 306.603922,616.19757 371.996079,566.140665 C390.666667,551.748173 406,539.437614 406,538.713464 C406,538.079832 402.572549,526.402905 398.423529,512.825082 C390.305882,486.303069 392.560784,491.55316 360.180392,424.207161 L352.87451,409 L334.564706,422.849379 C301.37255,447.832572 281.258824,461.862989 225.607844,499.24726 C203.509805,514.001827 185.290198,526.221867 185.109806,526.402905 C184.658825,526.76498 185.380394,533.282335 191.423531,581.890939 C196.113727,619.27521 197.286276,628.689167 198.278433,637.378973 C198.549021,640.275575 199.180394,642.810102 199.541178,643.081659 C200.262747,643.443734 221.098041,627.783979 300.019609,567.588966 C335.286275,540.704878 371.364706,513.277676 375.152941,510.471593 C382.188235,505.402539 381.917647,505.674096 330.686275,550.209353 C321.847059,557.903453 306.152942,571.571794 295.960785,580.533157 C285.678432,589.494519 260.603923,611.309554 240.219609,628.960723 C219.835295,646.611893 203.149021,661.275941 203.149021,661.547497 C202.968629,663.176836 232.913727,678.021922 244.368629,682.00475 C254.560785,685.534983 256.635295,685.80654 255.913727,683.54357 Z" id="Fiast" fill="#55569F" fill-rule="nonzero" mask="url(#mask-2)" transform="translate(464.500000, 507.500000) scale(-1, 1) rotate(-180.000000) translate(-464.500000, -507.500000) "></path>
        </g>
      </g>
    </g>
  </g>
</svg>
