<?xml version="1.0" encoding="UTF-8"?>
<svg width="741px" height="1015px" viewBox="0 0 741 1015" version="1.1" xmlns="http://www.w3.org/2000/svg" xmlns:xlink="http://www.w3.org/1999/xlink">
  <defs>
    <circle id="path-1" cx="400.5" cy="507.5" r="507.5"></circle>
  </defs>
  <g id="Page-1" stroke="none" stroke-width="1" fill="none" fill-rule="evenodd">
    <mask id="mask-2" fill="white">
      <use xlink:href="#path-1"></use>
    </mask>
    <g id="path-1"></g>
    <path d="M462.747939,1010.84609 C456.51437,1008.58852 439.710836,1002.44795 425.256184,997.210409 C314.497409,957.116103 228.401885,921.085409 189.916372,898.870996 L182.960071,894.897687 L181.966313,888.757117 C180.430506,879.726868 176.003769,854.351868 172.390106,833.943505 C170.673616,824.010231 168.415077,811.187278 167.421319,805.498221 C166.427562,799.809164 163.536631,783.37411 161.007067,768.925712 C158.477503,754.567616 155.405889,736.868327 154.141107,729.644128 C150.527444,708.242438 150.256419,707.068505 148.449588,707.068505 C145.920024,707.068505 129.568198,701.740658 120.353357,697.857651 C109.873734,693.523132 93.792933,685.125 82.861602,678.262011 L74.821201,673.205071 L73.737102,664.626335 C73.104711,659.930605 71.117197,644.037367 69.310365,629.408363 C67.503534,614.779359 65.244994,596.718861 64.341578,589.223754 C56.752886,530.978648 55.30742,517.072064 56.662544,516.259342 C59.914841,514.453292 151.792226,452.957295 162.091166,445.642794 C168.415077,441.127669 173.654888,437.064057 173.654888,436.522242 C173.74523,433.361655 144.384217,373.220196 129.477856,346.129448 C96.412839,285.807384 62.896113,238.037367 31.728269,206.792705 C20.074205,195.143683 -3.68563,173.741993 -17.1465253,162.815391 L-25.9096584,155.771797 L-25.9096584,142.316726 L-26,128.951957 L-21.7539458,132.383452 C41.846525,183.494662 70.213781,213.384786 106.531095,267.746886 C128.935807,301.339413 147.636514,334.390125 172.02874,383.695285 C182.508363,404.735765 186.754417,412.592082 187.386808,411.689057 C187.838516,410.966637 189.464664,407.986655 191.000471,405.006673 C197.956773,391.461299 213.134158,367.531139 224.788221,351.6379 C239.784923,331.229537 265.622615,304.319395 283.871614,290.232206 C319.466196,262.689947 358.132391,245.983986 399.328151,240.204626 C406.103769,239.301601 416.673734,238.398577 422.816961,238.308274 C428.869847,238.217972 433.838634,237.856762 433.838634,237.585854 C433.838634,236.682829 416.583392,216.455071 403.754888,202.187278 C382.072909,178.076512 343.587397,140.510676 316.84629,117.393238 C273.301649,79.6467972 219.458068,40.636121 171.848057,12.2811388 C162.181508,6.59208185 153.599058,1.44483986 152.876325,0.993327402 C151.972909,0.361209964 158.477503,0.0903024911 171.667373,0.0903024911 L191.813545,2.27373675e-13 L200.576678,5.59875445 C267.881154,48.3118327 326.061131,94.3661032 380.627444,148.186388 C409.085041,176.270463 438.988104,209.501779 456.875736,232.980427 C462.296231,240.114324 462.025206,239.933719 467.716726,240.656139 C474.311661,241.468861 491.566902,245.622776 495.45159,247.338523 C504.124382,251.131228 559.865135,315.968416 598.350648,367.079626 C634.577621,415.210854 676.496113,479.23532 701.701413,525.108986 C712.271378,544.343416 723.293051,565.203292 731.604476,581.999555 L741,600.963078 L737.928386,610.896352 C724.015783,655.325178 700.707656,711.764235 676.405771,759.895463 C626.53722,858.41548 569.170318,936.075623 504.57609,992.51468 C489.037338,1006.15036 477.654299,1015 475.757126,1015 C474.763369,1014.9097 468.981508,1013.10365 462.747939,1010.84609 Z M486.592704,981.250615 C509.80926,961.384259 529.050998,941.879109 550.822166,916.414052 C601.77212,856.634379 649.650623,776.44654 687.953425,686.596428 C702.316976,652.823622 717.583894,610.833368 715.867495,609.749749 C715.325475,609.478844 711.350655,608.937034 707.104826,608.575828 C680.274797,606.498891 627.608444,598.010538 594.45484,590.244599 C575.484112,585.910121 550.370482,579.047198 551.00284,578.505388 C551.183514,578.324785 557.7781,579.318103 565.637401,580.85323 C593.280461,586.181026 624.536993,589.883392 661.30407,592.140933 C692.921949,594.127569 714.151096,594.75968 714.151096,593.676061 C714.151096,592.231235 697.709799,560.535366 685.695005,538.953279 C634.654714,447.206832 566.992453,353.202846 498.065477,278.433104 L486.863714,266.242385 L479.275423,264.346051 C451.903373,257.483128 418.117411,257.212223 387.13189,263.623638 C376.833495,265.790877 360.663208,270.938069 350.093803,275.45315 C296.614419,298.118857 252.801072,340.199412 215.040291,405.216579 C212.872207,408.918945 212.781871,409.460755 214.227259,408.64804 C216.305006,407.474119 242.14133,386.795048 248.735916,380.925443 L253.433429,376.681267 L256.053197,382.460571 C257.498585,385.530826 268.881022,409.460755 281.3475,435.467622 L304.022036,482.695369 L310.435949,504.096853 C314.04942,515.836064 317.211208,525.67894 317.482219,526.040147 C317.753229,526.401353 325.793204,520.712351 335.188231,513.488222 C358.224114,495.698802 402.218135,461.384187 420.556505,446.845626 C428.777153,440.343909 439.346558,431.945858 444.044072,428.243492 L452.626068,421.470871 L472.500163,429.327112 C483.430916,433.751891 494.813352,438.17667 497.794466,439.26029 C502.853327,441.066322 528.14763,453.708549 564.192012,472.400984 C579.549268,480.347527 583.343414,482.514766 581.717351,482.514766 C580.362299,482.514766 523.721127,466.260474 506.828146,461.02298 C498.878508,458.584836 484.243947,453.257041 474.397236,449.193468 C464.460188,445.129895 456.058866,441.879037 455.697519,441.879037 C455.336172,441.879037 449.825627,446.032911 443.502051,451.180104 C398.423989,487.21045 283.786593,575.615736 191.37205,645.509191 C174.298395,658.422322 164,666.730071 164,667.723389 C164,668.536104 164.993705,674.044503 166.348757,679.914108 C167.613472,685.874015 168.968524,692.736938 169.420208,695.175082 C170.684923,702.579815 183.874095,768.048489 184.777463,771.479951 C185.590495,774.369603 188.119925,793.784451 189.745987,808.052107 C190.288008,813.289601 194.082154,836.858324 196.882594,852.751409 C197.695625,856.995585 198.327983,860.968857 198.327983,861.600968 C198.327983,862.142778 198.68933,862.684588 199.141014,862.684588 C200.315393,862.684588 275.565945,802.453407 306.370793,776.898048 C365.270385,728.044872 403.48285,694.272066 435.462076,663.118007 C453.800446,645.147984 450.457985,649.663065 426.789744,674.766916 C385.14448,718.924408 304.925404,793.513546 218.021405,869.005701 C204.470885,880.744912 203.115833,882.189738 204.470885,883.273357 C209.98143,887.607835 253.343093,907.835398 286.40636,921.470942 C298.330818,926.437531 309.442244,931.042914 310.977969,931.765327 C322.992763,937.093123 402.308472,967.163562 443.140704,981.882726 C455.787856,986.397807 467.621976,990.641984 469.338375,991.364397 C471.145111,992.001002 473.042184,992.177111 473.855215,991.815905 C474.577909,991.364397 480.359464,986.668712 486.592704,981.250615 Z M148.913727,683.54357 C147.380393,678.474516 143.952942,658.379339 144.494119,657.926745 C144.945099,657.564669 152.701962,651.680946 161.901962,644.710997 C178.49804,632.30992 199.603922,616.19757 264.996079,566.140665 C283.666667,551.748173 299,539.437614 299,538.713464 C299,538.079832 295.572549,526.402905 291.423529,512.825082 C283.305882,486.303069 285.560784,491.55316 253.180392,424.207161 L245.87451,409 L227.564706,422.849379 C194.37255,447.832572 174.258824,461.862989 118.607844,499.24726 C96.509805,514.001827 78.290198,526.221867 78.109806,526.402905 C77.658825,526.76498 78.380394,533.282335 84.423531,581.890939 C89.113727,619.27521 90.286276,628.689167 91.278433,637.378973 C91.549021,640.275575 92.180394,642.810102 92.541178,643.081659 C93.262747,643.443734 114.098041,627.783979 193.019609,567.588966 C228.286275,540.704878 264.364706,513.277676 268.152941,510.471593 C275.188235,505.402539 274.917647,505.674096 223.686275,550.209353 C214.847059,557.903453 199.152942,571.571794 188.960785,580.533157 C178.678432,589.494519 153.603923,611.309554 133.219609,628.960723 C112.835295,646.611893 96.149021,661.275941 96.149021,661.547497 C95.968629,663.176836 125.913727,678.021922 137.368629,682.00475 C147.560785,685.534983 149.635295,685.80654 148.913727,683.54357 Z" id="Fiast" fill="#55569F" fill-rule="nonzero" mask="url(#mask-2)" transform="translate(357.500000, 507.500000) scale(-1, 1) rotate(-180.000000) translate(-357.500000, -507.500000) "></path>
  </g>
</svg>
