<?xml version="1.0" encoding="UTF-8"?>
<svg width="377px" height="742px" viewBox="0 0 377 742" version="1.1" xmlns="http://www.w3.org/2000/svg" xmlns:xlink="http://www.w3.org/1999/xlink">
  <g stroke="none" stroke-width="1" fill="none" fill-rule="evenodd">
    <path d="M157.6,739.562682 C120,734.462682 84.9999996,719.562682 59.2999996,697.762682 C33.3999996,675.762682 13.2999996,640.062682 5.69999956,602.662682 C-0.200000437,573.762682 0.094948,583.962682 0.094948,388.162682 L0.094948,208.662682 L46.3999996,208.362682 L92.5999996,208.162682 L92.5999996,237.662682 L92.5999996,267.162682 L83.5999996,267.162682 L74.5999996,267.162682 L74.5999996,412.962682 C74.5999996,505.362682 74.9999996,560.962682 75.5999996,564.862682 C79.3999996,588.462682 90.4999996,610.662682 107.1,628.062682 C125.1,646.962682 146.3,658.562682 173.1,664.262682 C181,665.962682 205.1,665.962682 214.6,664.262682 C239.5,659.862682 263,647.062682 280.9,628.262682 C287.7,621.162682 300,604.262682 299.1,603.362682 C298.9,603.162682 296.7,603.762682 294.2,604.562682 C288.2,606.562682 281.2,606.562682 275.3,604.562682 C268.9,602.362682 261.4,595.462682 258.5,588.962682 C256.1,583.662682 256.1,583.562682 256.1,546.162682 L256.1,508.662682 L258.7,503.162682 C263.9,492.362682 273.1,486.162682 284.2,486.162682 C287.6,486.162682 292.3,486.862682 294.6,487.662682 C297,488.462682 299.1,489.062682 299.2,488.862682 C300.2,487.862682 288,471.462682 280.6,463.862682 C270.2,452.962682 262,446.762682 249.6,440.262682 C231.3,430.662682 215,426.762682 194.1,426.762682 C174,426.762682 157.9,430.462682 140.7,439.062682 L132.6,443.162682 L132.4,355.462682 L132.1,267.662682 L123.4,267.362682 L114.6,267.062682 L114.6,211.962682 C114.6,173.962682 114.9,155.762682 115.7,153.162682 C117.7,146.562682 123.5,140.062682 130.6,136.362682 C136.7,133.162682 137.6,132.962682 145.1,133.362682 C154.7,133.862682 159.4,136.062682 165.4,142.462682 C172.1,149.762682 172.8,152.462682 173.5,171.662682 C174,184.562682 174.5,189.362682 175.8,191.662682 C182.8,204.562682 201.6,206.262682 211.1,195.062682 C212.6,193.262682 214.3,190.662682 214.9,189.262682 C215.6,187.562682 216.2,174.362682 216.6,152.162682 C217.1,119.362682 217.2,117.462682 219.2,113.662682 C228.8,95.8626814 250.9,91.6626814 265.5,104.762682 C268.4,107.362682 271.3,111.262682 272.7,114.362682 C275,119.562682 275.1,120.462682 275.6,154.362682 L276.1,188.962682 L279.1,193.262682 C283.6,199.662682 289.5,202.362682 297.8,201.962682 C303.3,201.662682 305.3,201.062682 308.7,198.662682 C311,196.962682 313.9,193.862682 315,191.662682 C317.1,187.762682 317.1,186.362682 317.6,105.162682 C318.1,23.5626814 318.1,22.6626814 320.2,18.0626814 C327.7,1.96268147 345.1,-4.43731853 360.4,3.26268147 C366.5,6.26268147 370.5,10.3626814 374.2,17.1626814 C376,20.5626814 376.1,28.1626814 376.4,286.162682 C376.6,473.462682 376.4,555.362682 375.6,564.162682 C371.2,614.462682 357.2,651.962682 331.4,682.662682 C305.1,713.962682 264.5,734.462682 217.6,740.162682 C205.7,741.562682 170.1,741.262682 157.6,739.562682 Z M292.7,591.862682 C294.5,590.662682 297.1,588.062682 298.3,586.262682 C300.6,582.862682 300.6,582.662682 300.6,546.462682 C300.6,506.662682 300.6,506.862682 294.6,501.862682 C286.2,494.762682 273.2,498.662682 269.1,509.562682 C267.7,513.162682 267.5,518.362682 267.8,548.262682 C268.1,582.362682 268.1,582.662682 270.4,586.462682 C275,593.862682 285.9,596.462682 292.7,591.862682 Z" id="Shape" fill="#B01313" fill-rule="nonzero" transform="translate(188.282324, 370.531341) scale(-1, 1) rotate(-180.000000) translate(-188.282324, -370.531341) "></path>
    <path d="M135.6,740.781854 C129.9,738.881854 124.6,735.481854 120.8,731.181854 C107.5,716.081854 113,691.681854 131.5,683.381854 C138.7,680.081854 149.5,680.381854 156.8,683.981854 C162.8,686.981854 168.3,692.381854 171.2,698.581854 C173.8,703.781854 174.2,715.281854 172.2,721.481854 C170,727.981854 163.7,735.081854 157.2,738.381854 C151.8,741.181854 140.5,742.381854 135.6,740.781854 Z" id="Path" fill="#B01313" fill-rule="nonzero" transform="translate(143.463869, 711.290927) scale(-1, 1) rotate(-180.000000) translate(-143.463869, -711.290927) "></path>
  </g>
</svg>
