<?xml version="1.0" encoding="UTF-8"?>
<svg width="742px" height="742px" viewBox="0 0 742 742" version="1.1" xmlns="http://www.w3.org/2000/svg" xmlns:xlink="http://www.w3.org/1999/xlink">
  <!-- Generator: Sketch 63.1 (92452) - https://sketch.com -->
  <title>Group</title>
  <desc>Created with Sketch.</desc>
  <g id="Page-1" stroke="none" stroke-width="1" fill="none" fill-rule="evenodd">
    <g id="Group" transform="translate(182.094948, 0.013118)" fill="#B01313" fill-rule="nonzero">
      <path d="M157.505052,739.549563 C119.905052,734.449563 84.9050516,719.549563 59.2050516,697.749563 C33.3050516,675.749563 13.2050516,640.049563 5.60505156,602.649563 C-0.294948437,573.749563 0.00249534973,583.949563 0.00249534973,388.149563 L0.00249534973,208.649563 L46.3050516,208.349563 L92.5050516,208.149563 L92.5050516,237.649563 L92.5050516,267.149563 L83.5050516,267.149563 L74.5050516,267.149563 L74.5050516,412.949563 C74.5050516,505.349563 74.9050516,560.949563 75.5050516,564.849563 C79.3050516,588.449563 90.4050516,610.649563 107.005052,628.049563 C125.005052,646.949563 146.205052,658.549563 173.005052,664.249563 C180.905052,665.949563 205.005052,665.949563 214.505052,664.249563 C239.405052,659.849563 262.905052,647.049563 280.805052,628.249563 C287.605052,621.149563 299.905052,604.249563 299.005052,603.349563 C298.805052,603.149563 296.605052,603.749563 294.105052,604.549563 C288.105052,606.549563 281.105052,606.549563 275.205052,604.549563 C268.805052,602.349563 261.305052,595.449563 258.405052,588.949563 C256.005052,583.649563 256.005052,583.549563 256.005052,546.149563 L256.005052,508.649563 L258.605052,503.149563 C263.805052,492.349563 273.005052,486.149563 284.105052,486.149563 C287.505052,486.149563 292.205052,486.849563 294.505052,487.649563 C296.905052,488.449563 299.005052,489.049563 299.105052,488.849563 C300.105052,487.849563 287.905052,471.449563 280.505052,463.849563 C270.105052,452.949563 261.905052,446.749563 249.505052,440.249563 C231.205052,430.649563 214.905052,426.749563 194.005052,426.749563 C173.905052,426.749563 157.805052,430.449563 140.605052,439.049563 L132.505052,443.149563 L132.305052,355.449563 L132.005052,267.649563 L123.305052,267.349563 L114.505052,267.049563 L114.505052,211.949563 C114.505052,173.949563 114.805052,155.749563 115.605052,153.149563 C117.605052,146.549563 123.405052,140.049563 130.505052,136.349563 C136.605052,133.149563 137.505052,132.949563 145.005052,133.349563 C154.605052,133.849563 159.305052,136.049563 165.305052,142.449563 C172.005052,149.749563 172.705052,152.449563 173.405052,171.649563 C173.905052,184.549563 174.405052,189.349563 175.705052,191.649563 C182.705052,204.549563 201.505052,206.249563 211.005052,195.049563 C212.505052,193.249563 214.205052,190.649563 214.805052,189.249563 C215.505052,187.549563 216.105052,174.349563 216.505052,152.149563 C217.005052,119.349563 217.105052,117.449563 219.105052,113.649563 C228.705052,95.8495629 250.805052,91.6495629 265.405052,104.749563 C268.305052,107.349563 271.205052,111.249563 272.605052,114.349563 C274.905052,119.549563 275.005052,120.449563 275.505052,154.349563 L276.005052,188.949563 L279.005052,193.249563 C283.505052,199.649563 289.405052,202.349563 297.705052,201.949563 C303.205052,201.649563 305.205052,201.049563 308.605052,198.649563 C310.905052,196.949563 313.805052,193.849563 314.905052,191.649563 C317.005052,187.749563 317.005052,186.349563 317.505052,105.149563 C318.005052,23.5495629 318.005052,22.6495629 320.105052,18.0495629 C327.605052,1.94956293 345.005052,-4.45043707 360.305052,3.24956293 C366.405052,6.24956293 370.405052,10.3495629 374.105052,17.1495629 C375.905052,20.5495629 376.005052,28.1495629 376.305052,286.149563 C376.505052,473.449563 376.305052,555.349563 375.505052,564.149563 C371.105052,614.449563 357.105052,651.949563 331.305052,682.649563 C305.005052,713.949563 264.405052,734.449563 217.505052,740.149563 C205.605052,741.549563 170.005052,741.249563 157.505052,739.549563 Z M292.605052,591.849563 C294.405052,590.649563 297.005052,588.049563 298.205052,586.249563 C300.505052,582.849563 300.505052,582.649563 300.505052,546.449563 C300.505052,506.649563 300.505052,506.849563 294.505052,501.849563 C286.105052,494.749563 273.105052,498.649563 269.005052,509.549563 C267.605052,513.149563 267.405052,518.349563 267.705052,548.249563 C268.005052,582.349563 268.005052,582.649563 270.305052,586.449563 C274.905052,593.849563 285.805052,596.449563 292.605052,591.849563 Z" id="Shape" transform="translate(188.188594, 370.518223) scale(-1, 1) rotate(-180.000000) translate(-188.188594, -370.518223) "></path>
      <path d="M135.505052,740.768736 C129.805052,738.868736 124.505052,735.468736 120.705052,731.168736 C107.405052,716.068736 112.905052,691.668736 131.405052,683.368736 C138.605052,680.068736 149.405052,680.368736 156.705052,683.968736 C162.705052,686.968736 168.205052,692.368736 171.105052,698.568736 C173.705052,703.768736 174.105052,715.268736 172.105052,721.468736 C169.905052,727.968736 163.605052,735.068736 157.105052,738.368736 C151.705052,741.168736 140.405052,742.368736 135.505052,740.768736 Z" id="Path" transform="translate(143.368920, 711.277809) scale(-1, 1) rotate(-180.000000) translate(-143.368920, -711.277809) "></path>
    </g>
  </g>
</svg>
