<?xml version="1.0" encoding="utf-8"?>
<svg version="1.1" id="Layer_1" xmlns="http://www.w3.org/2000/svg" xmlns:xlink="http://www.w3.org/1999/xlink" x="0px" y="0px" viewBox="0 0 500 500" style="enable-background:new 0 0 500 500;" xml:space="preserve">
  <style type="text/css">
    .st0{fill:#E7FF00;}
    .st1{fill:#FF5900;}
    .st2{fill:#FF9ADA;}
    .st3{fill:#00D192;}
    .st4{fill:#697FFF;}
  </style>
  <g>
    <path d="M203.31,123.2c-2.79,0-5.46-1.58-6.72-4.27l-29.2-62.14c-1.74-3.71-0.15-8.13,3.56-9.87c3.71-1.74,8.13-0.15,9.87,3.56
      l29.2,62.14c1.74,3.71,0.15,8.13-3.56,9.87C205.44,122.98,204.37,123.2,203.31,123.2z"/>
    <path d="M171.02,150.6c-1.7,0-3.41-0.58-4.8-1.77l-38.48-32.71c-3.12-2.65-3.5-7.34-0.85-10.46s7.34-3.5,10.46-0.85l38.48,32.71
      c3.12,2.65,3.5,7.34,0.85,10.46C175.21,149.71,173.13,150.6,171.02,150.6z"/>
    <path d="M239.05,114.9c-0.08,0-0.17,0-0.25,0c-4.1-0.14-7.31-3.57-7.17-7.66l1.67-50.47c0.14-4.1,3.58-7.33,7.66-7.17
      c4.1,0.14,7.31,3.57,7.17,7.66l-1.67,50.47C246.33,111.74,243.03,114.9,239.05,114.9z"/>
    <g>
      <g>
        <path d="M476.13,77.9c-12.84-11.21-34.16-17-50.78-3.33l-117.67,83.61c-3.8-3.76-8.41-7.05-13.76-9.78
          c-13.81-7.08-31.08-9.59-48.61-7.09c-17.52,2.51-33.39,9.77-44.68,20.43c-11.82,11.18-17.36,24.79-15.61,38.36v39.39
          c0,1.86,0.16,3.71,0.47,5.53L29.27,356.03c-9.18,4.5-16.1,13.26-17.79,24.12l-1.45,9.32c-1.56,9.99,0.86,19.99,6.83,28.15
          c5.96,8.17,14.74,13.52,24.74,15.07L171,452.87c1.68,0.26,3.36,0.38,5.01,0.38c8.77,0,16.95-3.56,22.9-9.5
          c1.18-1.02,1.42-1.42,2.11-2.21l283.65-325.41c0.26-0.28,0.48-0.6,0.68-0.91C492.46,103.91,488.76,88.91,476.13,77.9z
           M247.41,156.01c3.75-0.54,7.48-0.81,11.13-0.81c10.48,0,20.38,2.19,28.63,6.41c3.08,1.57,5.81,3.37,8.15,5.36
          c1.99,1.7,3.7,3.52,5.12,5.46c0.92,1.26,1.72,2.56,2.38,3.9c0.44,0.89,0.82,1.79,1.14,2.7c0.51,1.45,0.88,2.95,1.1,4.47v0.01
          c0.36,2.49,0.31,5.01-0.14,7.51c-1.14,6.44-4.86,12.83-10.89,18.52c-0.15,0.14-0.29,0.27-0.43,0.4l-16.58-11.77l-3.7-2.63
          l-2.71-1.92l-6.07-4.31h-0.01l-0.32-0.24l-8.46-6.01l-29.42-20.88C232.72,159.19,239.86,157.08,247.41,156.01z M305.31,229.18
          c0.04,6.47-2.43,12.55-6.96,17.11c-7.56,7.62-20.8,17.05-40.92,18.64c-24.02,1.89-40-4.42-49.18-10.04
          c-1.88-1.16-3.5-2.67-4.8-4.44c-1.5-2.02-2.57-4.38-3.13-6.88c-0.3-1.32-0.46-2.69-0.46-4.08v-13.11
          c1.79,1.52,3.73,2.95,5.82,4.28c1.66,1.08,3.4,2.08,5.23,3.02c0.65,0.33,1.31,0.65,1.97,0.97c2.64,1.23,5.4,2.32,8.26,3.23
          c7.83,2.53,16.39,3.83,25.22,3.83c4.34,0,8.75-0.32,13.18-0.95c17.52-2.5,33.39-9.76,44.68-20.43c0.34-0.33,0.68-0.65,1.02-0.98
          L305.31,229.18z M199.93,191.05c1.13-6.43,4.86-12.82,10.89-18.52c0.64-0.6,1.3-1.19,1.98-1.76l21.62,15.35l8.78,6.23l8.2,5.83
          l0.58,0.42h0.01l5.82,4.13l6.4,4.55l16.36,11.61c-6.9,3.52-14.76,5.98-23.14,7.18c-6.86,0.98-13.62,1.05-20.03,0.26
          c-3.44-0.43-6.77-1.1-9.96-2.03c-2.92-0.84-5.73-1.89-8.38-3.14c-0.46-0.22-0.93-0.46-1.39-0.69
          c-7.38-3.79-12.75-8.88-15.64-14.73c-1.13-2.29-1.88-4.68-2.25-7.16v-0.01C199.43,196.08,199.48,193.56,199.93,191.05z
           M195.48,417.02l-1.05,6.67c-0.31,2.03-0.94,3.93-1.84,5.65c-0.94,1.84-2.18,3.49-3.64,4.89c-0.04,0.06-0.09,0.1-0.14,0.15
          c-4.05,3.81-9.77,5.79-15.69,4.88l-129.4-20.17c-6.36-0.99-11.94-4.4-15.74-9.59c-3.8-5.2-5.34-11.55-4.35-17.91l1.46-9.32
          c0.47-3.08,1.68-5.87,3.43-8.21c1.33-1.8,2.96-3.34,4.82-4.55c1.89-1.23,4-2.12,6.25-2.61c2.18-0.48,4.48-0.57,6.82-0.2
          l126.74,19.75c7.07,1.1,13.28,4.89,17.5,10.66C194.86,402.88,196.57,409.96,195.48,417.02z M473.04,106.9L209.47,409.95
          c-0.53-7.5-3.16-14.73-7.71-20.96c-6.37-8.75-15.79-14.48-26.49-16.14L57.13,354.43l134.23-95.39c2.44,3.38,5.53,6.29,9.13,8.5
          c9.73,5.96,25.65,12.57,48.4,12.57c3.11,0,6.35-0.12,9.71-0.39c24.65-1.95,40.95-13.57,50.29-22.98
          c7.33-7.39,11.33-17.21,11.26-27.66l-0.26-37.74v-0.01l-0.06-8.93c0-0.22-0.01-0.45-0.04-0.68c-0.01-0.1-0.03-0.21-0.04-0.31
          c-0.01-0.06-0.02-0.13-0.03-0.19c-0.56-3.85-1.69-7.53-3.35-11.01l117.8-83.71c0.15-0.12,0.32-0.23,0.46-0.36
          c9.97-8.33,23.44-4.31,31.75,2.93C471.98,93.97,476.12,101.31,473.04,106.9z"/>
        <path d="M188.95,434.23c-0.04,0.06-0.09,0.1-0.14,0.15c0.01-0.05,0.04-0.11,0.07-0.18L188.95,434.23z"/>
      </g>
      <g>
        <path d="M188.88,434.2c-0.03,0.07-0.06,0.13-0.07,0.18c0.05-0.05,0.1-0.09,0.14-0.15L188.88,434.2z"/>
      </g>
    </g>
    <g>
      <path class="st0" d="M195.48,417.02l-1.05,6.67c-0.31,2.03-0.94,3.93-1.84,5.65c-0.94,1.84-2.18,3.49-3.64,4.89l-0.07-0.03
        c-0.03,0.07-0.06,0.13-0.07,0.18c-4.05,3.81-9.77,5.79-15.69,4.88l-129.4-20.17c-6.36-0.99-11.94-4.4-15.74-9.59
        c-3.8-5.2-5.34-11.55-4.35-17.91l1.46-9.32c0.47-3.08,1.68-5.87,3.43-8.21c1.33-1.8,2.96-3.34,4.82-4.55
        c1.89-1.23,4-2.12,6.25-2.61c2.18-0.48,4.48-0.57,6.82-0.2l126.74,19.75c7.07,1.1,13.28,4.89,17.5,10.66
        C194.86,402.88,196.57,409.96,195.48,417.02z"/>
      <path class="st0" d="M304.92,191.02c-1.14,6.44-4.86,12.83-10.89,18.52c-0.15,0.14-0.29,0.27-0.43,0.4l-16.58-11.77l-3.7-2.63
        l-2.71-1.92l-6.07-4.31h-0.01l-0.32-0.24l-8.46-6.01l-29.42-20.88c6.39-2.99,13.53-5.1,21.08-6.17c3.75-0.54,7.48-0.81,11.13-0.81
        c10.48,0,20.38,2.19,28.63,6.41c3.08,1.57,5.81,3.37,8.15,5.36c1.99,1.7,3.7,3.52,5.12,5.46c0.92,1.26,1.72,2.56,2.38,3.9
        c0.44,0.89,0.82,1.79,1.14,2.7c0.51,1.45,0.88,2.95,1.1,4.47v0.01C305.42,186,305.37,188.52,304.92,191.02z"/>
      <path class="st0" d="M280.57,218.89c-6.9,3.52-14.76,5.98-23.14,7.18c-6.86,0.98-13.62,1.05-20.03,0.26
        c-3.44-0.43-6.77-1.1-9.96-2.03c-2.92-0.84-5.73-1.89-8.38-3.14c-0.46-0.22-0.93-0.46-1.39-0.69
        c-7.38-3.79-12.75-8.88-15.64-14.73c-1.13-2.29-1.88-4.68-2.25-7.16v-0.01c-0.35-2.49-0.3-5.01,0.15-7.52
        c1.13-6.43,4.86-12.82,10.89-18.52c0.64-0.6,1.3-1.19,1.98-1.76l21.62,15.35l8.78,6.23l8.2,5.83l0.58,0.42h0.01l5.82,4.13
        l6.4,4.55L280.57,218.89z"/>
      <path class="st0" d="M305.31,229.18c0.04,6.47-2.43,12.55-6.96,17.11c-7.56,7.62-20.8,17.05-40.92,18.64
        c-24.02,1.89-40-4.42-49.18-10.04c-1.88-1.16-3.5-2.67-4.8-4.44c-1.5-2.02-2.57-4.38-3.13-6.88c-0.3-1.32-0.46-2.69-0.46-4.08
        v-13.11c1.79,1.52,3.73,2.95,5.82,4.28c1.66,1.08,3.4,2.08,5.23,3.02c0.65,0.33,1.31,0.65,1.97,0.97c2.64,1.23,5.4,2.32,8.26,3.23
        c7.83,2.53,16.39,3.83,25.22,3.83c4.34,0,8.75-0.32,13.18-0.95c17.52-2.5,33.39-9.76,44.68-20.43c0.34-0.33,0.68-0.65,1.02-0.98
        L305.31,229.18z"/>
      <path class="st0" d="M473.04,106.9L209.47,409.95c-0.53-7.5-3.16-14.73-7.71-20.96c-6.37-8.75-15.79-14.48-26.49-16.14
        L57.13,354.43l134.23-95.39c2.44,3.38,5.53,6.29,9.13,8.5c9.73,5.96,25.65,12.57,48.4,12.57c3.11,0,6.35-0.12,9.71-0.39
        c24.65-1.95,40.95-13.57,50.29-22.98c7.33-7.39,11.33-17.21,11.26-27.66l-0.26-37.74v-0.01l-0.06-8.93c0-0.22-0.01-0.45-0.04-0.68
        c-0.01-0.1-0.03-0.21-0.04-0.31c-0.01-0.06-0.02-0.13-0.03-0.19c-0.56-3.85-1.69-7.53-3.35-11.01l117.8-83.71
        c0.15-0.12,0.32-0.23,0.46-0.36c9.97-8.33,23.44-4.31,31.75,2.93C471.98,93.97,476.12,101.31,473.04,106.9z"/>
    </g>
  </g>
</svg>
