<?xml version="1.0" encoding="UTF-8"?>
<svg width="228px" height="228px" viewBox="0 0 228 228" version="1.1" xmlns="http://www.w3.org/2000/svg" xmlns:xlink="http://www.w3.org/1999/xlink">
  <g id="Page-1" stroke="none" stroke-width="1" fill="none" fill-rule="evenodd">
    <path d="M0,114 L0,0 L114,0 L228,0 L228,114 L228,228 L114,228 L0,228 L0,114 Z M127.1,207.6 C140.7,205.1 153.4,198.8 164.2,189.1 C179.2,175.5 187.2,158.3 188.7,136.4 L189.3,127.4 L184.1,127.4 L179,127.4 L179,134.4 C178.9,164.2 156.3,191.6 126.8,197.5 C112.1,200.4 99,198.6 85,191.8 C73.1,186 61.9,174.8 56.2,162.9 C50.6,151.4 48.7,142.9 49.2,130.5 L49.5,120.5 L45,120.5 L40.5,120.5 L39.7,125.5 C37.9,136.8 41.2,155.5 47,167.1 C62.1,197 94.5,213.4 127.1,207.6 Z M119.9,187.4 C121.1,185.9 122,183.6 122,182.3 C122,178.9 117.8,175 114,175 C110.2,175 106,178.9 106,182.3 C106,186.5 109.6,190 114,190 C117,190 118.3,189.4 119.9,187.4 Z M125.7,163.8 C133.5,160.9 140.9,153.5 143.9,145.5 C145.8,140.6 146.1,138.1 145.8,132 C145.2,121.5 144.2,120 138,120 C135.2,120 133,120.4 133,120.9 C133,121.4 133.7,123.4 134.5,125.3 C136.4,130 136.4,138.1 134.4,142.8 C131,151.2 123.5,156 114,156 C106.8,156 101.8,153.8 97.3,148.6 C93.2,144.1 91.7,139 92.2,132.1 L92.6,126.5 L87.5,126.5 L82.5,126.5 L82.2,133.1 C81.2,155.9 103.9,172 125.7,163.8 Z M123,151.5 C129.3,148.3 133.1,142.8 133.8,136 C134.4,129.5 131.9,122.8 127.6,119.5 C123.8,116.6 123.3,116.5 121.4,118.5 C120.3,119.6 117.7,119.9 110.7,119.8 C99.7,119.5 97.8,120.4 95.5,126.5 C91.8,136.1 95.7,146.7 104.8,151.4 C111,154.7 116.7,154.7 123,151.5 Z M185,114.1 C185,107.1 185.4,104 186.3,103.7 C188.6,102.7 185,101.3 180.1,101.2 C174.2,101 171,103.5 171,108.3 C171,112.8 173.4,115.8 177.6,116.6 C180.9,117.2 181.2,117.5 180.6,120.1 C180.1,122.8 180.6,123.3 184.3,123.9 C184.7,123.9 185,119.5 185,114.1 Z M35.4,119.9 C34.6,118.5 32,118.8 32,120.3 C32,121.1 32.3,122 32.7,122.3 C33.6,123.2 36.1,121 35.4,119.9 Z M89.5,113.3 C89.5,106.4 89.9,103.5 90.8,103.2 C91.4,103 91.8,102.4 91.4,101.9 C90.7,100.7 84,100.7 84,102 C84,102.6 84.5,103 85.1,103 C85.8,103 86.1,106.2 86,112.3 C85.8,123.7 85.7,123 87.8,123 C89.4,123 89.6,122 89.5,113.3 Z M193.4,119.9 C192.6,118.5 190,118.8 190,120.3 C190,121.1 190.3,122 190.7,122.3 C191.6,123.2 194.1,121 193.4,119.9 Z M95.8,120.2 C96,119.5 95.5,119 94.6,119 C93.7,119 93,119.7 93,120.6 C93,122.3 95.2,122 95.8,120.2 Z M25.1,116 C28.3,114.3 27.3,112.8 23.5,113.6 C18.9,114.4 19,113 23.8,110.5 C27.9,108.3 29,105.2 26.5,102.6 C25.6,101.7 23.7,101 22.3,101 C19.7,101 16,103.5 16,105.2 C16,106.5 18.2,106.1 20.1,104.4 C21.9,102.7 25,103.1 25,104.9 C25,105.5 23.5,106.7 21.8,107.6 C16.7,110.2 15.7,112.6 18.6,115.4 C20.4,117.3 22.4,117.4 25.1,116 Z M35.2,110 C35,106.6 35.3,104 35.9,103.6 C38.1,102.2 36.9,101 33.5,101 C31.6,101 30,101.5 30,102 C30,102.6 30.5,103 31,103 C32.4,103 32.3,112.3 30.8,113.8 C29.9,114.7 30.2,115.2 32.1,115.9 C33.4,116.4 34.7,116.6 35,116.3 C35.3,116 35.3,113.2 35.2,110 Z M46.2,116.1 C47.7,116.9 48.9,116.9 50.6,116.1 C52.3,115.3 53.7,115.4 55.5,116.2 C57.4,117.1 58.4,117 60.5,115.6 C62.7,114.2 63,113.2 63,108.5 C63,105.5 63.5,103 64,103 C64.6,103 65,102.6 65,102 C65,100.8 58.3,100.7 57.6,101.9 C57.3,102.4 57.7,103 58.5,103.4 C61.1,104.4 59.8,114 57,114 C53.5,114 51.3,104.6 54.5,103.4 C57.3,102.3 56,101 52,101 C49.8,101 48,101.5 48,102 C48,102.6 48.5,103 49,103 C49.6,103 50,105.3 50,108 C50,113.4 48.3,115.3 45.5,113 C43.8,111.6 43.4,103 45,103 C45.6,103 46,102.6 46,102 C46,101.5 44.4,101 42.5,101 C39.1,101 37.9,102.2 40,103.5 C41.4,104.4 41.3,112.3 39.8,113.8 C38.9,114.7 39.2,115.2 41.1,115.8 C42.4,116.4 43.6,116.4 43.8,115.9 C44,115.4 45.1,115.5 46.2,116.1 Z M77.7,116.2 C80.1,115.8 82,112.7 82,109.1 C82,104.1 78.4,100.6 74.1,101.2 C71.4,101.6 71,101.4 71,99.3 C71,97.9 71.6,97 72.5,97 C73.3,97 74,96.6 74,96 C74,95.5 72.2,95 70,95 C67.8,95 66,95.5 66,96 C66,96.6 66.5,97 67,97 C68.4,97 68.3,112.3 66.8,113.8 C64.9,115.7 70.8,117 77.7,116.2 Z M105.3,113.7 C107.9,110.4 106.9,109.1 101.1,108.3 C96.8,107.7 96.5,107.4 97.9,105.1 C98.5,104.1 99.9,103.9 102.4,104.3 C106.1,104.9 106.9,104.3 104.8,102.2 C102.8,100.2 98.1,100.8 95.5,103.5 C91.5,107.4 92.4,113 97.5,115.9 C100.5,117.5 103.1,116.8 105.3,113.7 Z M118.8,114.6 C119.1,113.1 118.8,112.8 117.1,113.3 C115.7,113.6 114.7,113.2 114,112 C112.5,109.2 112.8,104 114.5,103.4 C117.3,102.3 116,101 112,101 C109.8,101 108,101.5 108,102 C108,102.6 108.5,103 109,103 C110.4,103 110.3,112.3 108.8,113.8 C107.4,115.2 110.3,116.5 115.2,116.5 C117.6,116.5 118.6,116 118.8,114.6 Z M135.5,116 C136.4,117.4 139.7,117.3 141.2,115.6 C142.3,114.5 142.8,114.5 144.8,115.8 C149.5,118.9 153,114.7 153,105.9 C153,104.3 153.5,103 154,103 C154.6,103 155,102.6 155,102 C155,101.5 153.2,101 151,101 C148.8,101 147,101.5 147,102 C147,102.6 147.5,103 148,103 C148.6,103 149,105.3 149,108 C149,113.7 146.8,115.8 144.4,112.5 C142.8,110.3 142.5,103 144,103 C144.6,103 145,102.6 145,102 C145,101.5 143.4,101 141.5,101 C139.6,101 138,101.5 138,102 C138,102.6 138.5,103 139,103 C140.3,103 140.3,111 139,113 C138.3,114.2 137.7,114.2 136.3,113.4 C134.3,112.2 133.1,103 134.9,103 C135.5,103 136,102.6 136,102 C136,101.5 134.2,101 132,101 C129.8,101 128,101.5 128,102 C128,102.6 128.5,103 129.1,103 C129.9,103 130.1,105 129.8,109.4 C129.3,114.9 129.5,116 130.9,116.3 C131.8,116.5 133,116.3 133.7,115.8 C134.3,115.3 135.1,115.3 135.5,116 Z M166.8,115.4 C169.7,113.4 169.7,109.4 166.8,108.6 C165.5,108.3 163.5,108 162.2,108 C160.5,108 160,107.5 160.2,106.3 C160.5,104.9 161.5,104.5 164.8,104.6 C167.1,104.6 169,104.4 169,104 C169,102.5 166.4,101 163.6,101 C156.7,101 153.4,109.5 158.5,114.5 C161.3,117.4 163.6,117.6 166.8,115.4 Z M193.3,110 C192.8,105.1 193,103.9 194.4,103.4 C195.3,103.1 195.7,102.4 195.4,101.9 C194.7,100.7 188,100.8 188,102 C188,102.6 188.5,103 189,103 C190.4,103 190.3,112.3 188.8,113.8 C187.9,114.7 188.2,115.2 190.1,115.9 C191.4,116.4 192.8,116.6 193.2,116.4 C193.5,116.2 193.6,113.3 193.3,110 Z M207.4,115.7 C208.6,114.8 209.4,112.6 209.8,109.2 C210,106.3 210.7,104 211.2,104 C211.9,104 211.8,103.5 211.1,102.7 C209.8,101.1 201.4,100.7 198.8,102.1 C194.6,104.4 198.3,111 203.7,111 C205,111 206,111.6 206,112.4 C206,114.5 203.3,115.1 201.6,113.5 C199.7,111.6 198,111.6 198,113.5 C198,116.6 204.2,118.1 207.4,115.7 Z M126.4,109.7 C127.2,107.6 127,106.6 125.5,105 C123.2,102.5 121.5,102.5 119,105 C116.8,107.2 117.1,109 119.6,109 C120.3,109 121.5,109.9 122.2,111 C123.8,113.5 125.2,113.1 126.4,109.7 Z M174.7,97.8 C176.5,97.1 178,96.2 178,95.7 C178,94.8 173.7,88.8 170.4,85 C168.2,82.6 168.1,81.9 167.8,53.9 L167.5,25.3 L164.5,20.4 C162.5,17.3 159.8,14.6 157,13 L152.5,10.5 L114,10.5 L75.5,10.5 L71,13 C68.2,14.6 65.5,17.3 63.5,20.4 L60.5,25.3 L60.2,53.9 C59.9,81.9 59.8,82.5 57.6,85 C56.4,86.4 53.9,89.5 52.1,92 L48.9,96.5 L54.7,96.8 C58.7,97 60.6,96.7 60.9,95.8 C61.9,92.8 75.7,81 83,76.8 C100.3,66.9 127.7,66.9 145,76.8 C151.8,80.7 159,86.7 164.4,93.2 C167.1,96.4 169.8,99 170.3,99 C170.9,99 172.9,98.5 174.7,97.8 Z" id="Shape" fill="#C84127" fill-rule="nonzero" transform="translate(114.000000, 114.000000) scale(-1, 1) rotate(-180.000000) translate(-114.000000, -114.000000) "></path>
    <path d="M107.5,101.925 C105.5,100.325 104.7,98.425 104.3,95.025 C103.8,90.825 104,90.025 106.8,87.225 C111.1,82.925 116.9,82.925 121.2,87.225 C124,90.025 124.2,90.825 123.7,95.025 C123,100.925 119.6,104.225 114,104.225 C111.4,104.225 109.2,103.425 107.5,101.925 Z" id="Path" fill="#C84127" fill-rule="nonzero" transform="translate(114.000000, 94.112500) scale(-1, 1) rotate(-180.000000) translate(-114.000000, -94.112500) "></path>
    <path d="M175,121.9 C173.3,118.8 175.5,114 178.6,114 C180.8,114 181,114.4 181,119 C181,123.6 180.8,124 178.5,124 C177.1,124 175.6,123.2 175,121.9 Z" id="Path" fill="#C84127" fill-rule="nonzero" transform="translate(177.704224, 119.000000) scale(-1, 1) rotate(-180.000000) translate(-177.704224, -119.000000) "></path>
    <path d="M72.2,123.739909 C71.5,123.039909 71,121.039909 71,119.239909 C71,116.639909 71.6,115.639909 73.6,114.739909 C75.8,113.639909 76.4,113.739909 77.6,115.439909 C81.2,120.339909 76.3,127.839909 72.2,123.739909 Z" id="Path" fill="#C84127" fill-rule="nonzero" transform="translate(74.926067, 119.469955) scale(-1, 1) rotate(-180.000000) translate(-74.926067, -119.469955) "></path>
    <path d="M97.7,116.573052 C96,114.973052 97.2,113.673052 100,114.073052 C103.5,114.573052 104.1,117.273052 100.7,117.273052 C99.4,117.273052 98,116.973052 97.7,116.573052 Z" id="Path" fill="#C84127" fill-rule="nonzero" transform="translate(99.938236, 115.636526) scale(-1, 1) rotate(-180.000000) translate(-99.938236, -115.636526) "></path>
    <path d="M160.7,116.798719 C159,115.098719 160.1,113.798719 163,114.198719 C164.7,114.398719 165.9,115.098719 165.7,115.798719 C165.3,117.098719 161.7,117.798719 160.7,116.798719 Z" id="Path" fill="#C84127" fill-rule="nonzero" transform="translate(162.808564, 115.699359) scale(-1, 1) rotate(-180.000000) translate(-162.808564, -115.699359) "></path>
    <path d="M202.3,123.620312 C201.6,123.420312 201,122.320312 201,121.220312 C201,119.820312 201.7,119.320312 203.6,119.320312 C205.6,119.320312 206.1,119.720312 205.8,121.520312 C205.5,123.820312 204.3,124.520312 202.3,123.620312 Z" id="Path" fill="#C84127" fill-rule="nonzero" transform="translate(203.440125, 121.660156) scale(-1, 1) rotate(-180.000000) translate(-203.440125, -121.660156) "></path>
    <path d="M70.2,183.9 L70.5,160.3 L73.3,157.6 L76,154.8 L113.9,154.8 L151.8,154.8 L154.4,157.2 C157.8,160.4 158.2,163.9 157.8,187.6 L157.5,207.5 L154.8,205.3 L152,203.2 L152,181.7 L152,160.3 L114,160.3 L76,160.3 L76,181.6 C76,200.7 75.8,203.1 74.3,204.5 C69.8,208.3 69.9,208.8 70.2,183.9 Z" id="Path" fill="#C84127" fill-rule="nonzero" transform="translate(114.002165, 181.150000) scale(-1, 1) rotate(-180.000000) translate(-114.002165, -181.150000) "></path>
    <path d="M85,178.3 L85,163.8 L114,163.8 L143,163.8 L143,178.4 L143,193 L140.8,192.4 C139.5,192 135.8,191 132.5,190 C123.4,187.4 101.7,187.8 93,190.6 C89.4,191.8 86.2,192.8 85.8,192.8 C85.3,192.8 85,186.3 85,178.3 Z" id="Path" fill="#C84127" fill-rule="nonzero" transform="translate(114.000000, 178.400000) scale(-1, 1) rotate(-180.000000) translate(-114.000000, -178.400000) "></path>
  </g>
</svg>
