<?xml version="1.0" encoding="UTF-8"?>
<svg class="shadow" xmlns="http://www.w3.org/2000/svg" viewBox="0 0 2660.2 2660.2">
  <circle cx="1330.1" cy="1330.1" r="1330.1" fill="#9e1f63"></circle>
  <path d="M1150 1840.9c5.6-17.7 32.6-59.6 44.5-73.3 8-9.3 26 1.8 20.2 8.6-20.4 24.4-57 77.5-39.9 81.7 4.5 1.1 13.3-7 23.5-19.3 9.5-21.9 28.5-49.5 45-70.1 7.2-9.3 26.3-2.7 17.6 8.6-15.3 20.2-64.6 86.1-44 86.1 17.7 0 64.2-59.7 68-109.1.4-5.8 2.8-9.7 7.9-9.7 8 0 11.7 8.6 11 18.3-3 47-55.3 112.9-95.3 112.9-12 0-16.4-6-16.2-15.5-8.2 8.2-19 15.5-27.2 15.5-19.7 0-21.5-14-15-34.7zM1332 1767.8c7.7-9.3 29.6-2.4 20.1 8.7-22.8 23.9-61.3 86.5-46.7 86.5 10 0 37.8-35.4 49.6-56 3.7-.7 6 .9 8 3.5-17.1 28.6-45 65.1-72.2 65.1-28.1 0 11.3-72 41.2-107.8zm37.8-42.2c21.3 0 2 27.2-15 26.5-18-.7-2.5-26.5 15-26.5z" fill="#FFF"></path>
  <path d="M1335.3 1838.9a604 604 0 0147.1-82.6h-7.7c-4 0-1.1-8.4 3-8.8h11a801 801 0 0128.2-37.4c7.3-9.3 27.5-2.3 17.8 8.6a393.3 393.3 0 00-22.6 28.8h17.5c3.7 0 1.5 8.8-3.8 8.8h-20c-31.3 44.7-67.9 107-52.6 107 10 0 39.6-38.8 49.4-56 3.7-.7 6.2.8 8 3.5-17.8 28-44.6 64.8-66 64.8-21.5 0-19.5-16-9.3-36.7z" fill="#FFF"></path>
  <path d="M1373.6 1860.1c10-25.7 42.5-84 89-146.3 7-9.5 29.1-2.2 19.6 8.9-31.2 33.8-60.4 81.4-77.9 115.7 18.4-19.9 72-79.7 91.7-71.9 4.2 1.5 4.4 6 1.5 9.7-19.3 26.1-56.9 86.8-42.3 86.8 10 0 37.9-35.4 49.6-56 3.8-.7 6 .9 8 3.5-17 26.4-45 65.1-72.2 65.1-27.2 0-2.4-48.7 19-76.6-11 6.7-50.8 49.8-64.8 71.7-2 3.1-3.5 4.9-6.8 4.9-16.2 0-18.4-5.3-14.4-15.5zM572 1946.8c16.4 0 34.7 9.6 34.7 37.4v41.3c0 11-2.6 19.6-11.9 26 9.3 6.4 11.9 15 11.9 25.9v45.1c0 27.9-18.3 37.5-34.6 37.5h-44.8v-213.2zm2.6 39.4c0-6.4-1.9-9.3-6.4-9.3h-7.6v62h8c4.4 0 6-2.5 6-9.2zm0 89.3c0-6.7-1.6-9.3-6-9.3h-8v63.7h7.6c4.5 0 6.4-2.9 6.4-9.3zM738.2 2160h-31.6c-3-8.3-4.5-17-4.5-33v-46.4c0-6-1.6-9.6-7.4-9.6H687v89h-33.3v-213.2h44.8c16.4 0 34.6 9.6 34.6 37.4v48.7c0 10-2.5 18.2-11.2 24 8.7 5.8 12.2 13.8 12.2 24.3v43.3a164.1 164.1 0 004.1 35.5zm-37-173.8c0-6.4-2-9.3-6.5-9.3H687v66h8c4.5 0 6.1-2.6 6.1-9.4zM836.5 1946.8h32l-32.6 128v85.2h-33.3v-85.2l-32.7-128h32l11.3 52.5a385 385 0 016 33h.7c.6-6.1 2.9-21.8 5.4-33zM932.3 2123.5L928 2160h-29.8l28.5-213.2h31l28.6 213.2h-32.7l-3.2-36.5zm15.3-30.4l-5.1-59.2-6.7 59.2zM1058.7 1946.8l15 56.6c3.6 13.5 12 49 14.2 61.8h.6c-1.3-11.8-2.9-61.4-2.9-72.6v-45.8h31.4V2160h-33.3l-14-53.1c-3.6-12.8-11.3-47.4-13.5-60h-.7c1.3 11.3 2.6 60 2.6 70.5l.3 42.6h-31.7v-213.2zM1280.3 1946.8c16.3 0 34.5 9.6 34.5 37.4v41.3c0 11-2.5 19.6-11.8 26 9.3 6.4 11.8 15 11.8 25.9v45.1c0 27.9-18.2 37.5-34.5 37.5h-44.9v-213.2zm2.5 39.4c0-6.4-1.9-9.3-6.4-9.3h-7.7v62h8c4.5 0 6.1-2.5 6.1-9.2zm0 89.3c0-6.7-1.6-9.3-6-9.3h-8v63.7h7.6c4.5 0 6.4-2.9 6.4-9.3zM1388.2 2123.5l-4.2 36.5h-29.8l28.5-213.2h31l28.6 213.2h-32.7l-3.2-36.5zm15.3-30.4l-5.1-59.2-6.7 59.2zM1567.1 2160h-31.7c-2.9-8.3-4.5-17-4.5-33v-46.4c0-6-1.6-9.6-7.3-9.6h-7.7v89h-33.3v-213.2h44.8c16.4 0 34.6 9.6 34.6 37.4v48.7c0 10-2.6 18.2-11.2 24 8.6 5.8 12.2 13.8 12.2 24.3v43.3a164.1 164.1 0 004.1 35.5zm-37.1-173.8c0-6.4-2-9.3-6.4-9.3h-7.7v66h8c4.5 0 6-2.6 6-9.4zM1677 2160h-67.6v-213.2h33.3v182.5h34.2zM1719.5 2160v-213.2h69.5v30.7h-36.2v58.3h24v29.1h-24v64.4h36.2v30.7zM1881.5 1979.1V2160h-33v-180.9h-24v-32.3h81v32.3zM1996.4 1979.1V2160h-33v-180.9h-24v-32.3h81v32.3zM2087.7 2123.5l-4.2 36.5h-29.7l28.4-213.2h31.1l28.5 213.2H2109l-3.2-36.5zm15.4-30.4l-5.2-59.2-6.7 59.2z" fill="#FFF"></path>
  <g>
    <path d="M1046.4 563.7v345.6c0 66.2-48 110.8-107.5 110.8-59.6 0-107.5-44.6-107.5-110.8V563.7c0-66.2 48-110.9 107.5-110.9s107.5 44.7 107.5 110.9zm-128.2-5.8V915c0 14 8.3 22.3 20.7 22.3 12.4 0 20.7-8.3 20.7-22.3V557.9c0-14.1-8.3-22.4-20.7-22.4-12.4 0-20.7 8.3-20.7 22.4zM1189.4 1020.1c-59.5 0-105.8-45.5-105.8-108.3V461h86v454c0 14 8.3 22.3 19.8 22.3 12.4 0 19.9-8.3 19.9-22.3V461h86v450.7c0 62.8-46.3 108.3-105.9 108.3zM1417.7 461.1l38.8 146.4c9.1 34.7 30.6 126.5 36.4 159.6h1.7c-3.4-30.6-7.5-158.8-7.5-187.7V461h81v550.7h-86l-36.3-137.2c-9.1-33.1-29-122.4-34.8-154.7h-1.6c3.3 29 6.6 154.7 6.6 182l.8 110H1335V461zM1722.8 1011.8h-113.3V461.1h113.3c52 0 100 30.6 100 107.5v339c0 77-48 104.2-100 104.2zm14.9-443.2c0-19-7.5-28.1-22.4-28.1h-19.8v392.8h19.8c15 0 22.4-9.1 22.4-29zM1923.7 847.3v64.5c0 19.8 9.1 33 28.1 33 18.2 0 27.3-12.3 27.3-33 0-49.6-19.8-88.5-52-143.9-32.3-51.3-76.2-127.3-76.2-191 0-68.7 35.6-124 110-124 58 0 96.8 42.1 96.8 114.9V628H1984v-68.6c0-18.2-10-28.1-23.2-28.1-14 0-25.6 9.1-25.6 28.1 0 63.7 19 86 53.7 147.2 36.4 62 72.8 127.4 72.8 191.8 0 86-52 121.6-105.8 121.6-66.2 0-106.7-41.3-106.7-115v-57.8z" fill="#FFF"></path>
    <path d="M388.6 1422.1H358v214.2h-86v-550.8h116.6c43.8 0 88.5 25.7 88.5 99.3v138.9c0 72.8-44.7 98.4-88.5 98.4zm6.6-234.8c0-16.6-5-23.2-14.9-23.2H358v186h22.3c10 0 14.9-6.6 14.9-23zM724.3 1636.3h-81.9c-7.4-21.5-11.5-43.9-11.5-85.2v-119.9c0-15.7-4.2-24.8-19-24.8H592v229.9h-86v-550.8h115.8c42.1 0 89.3 24.9 89.3 96.8V1308c0 25.6-6.6 47.1-29 62 22.4 14.9 31.5 35.6 31.5 62.9v111.6c0 34.7 5 65.3 10.7 91.8zm-96-449c0-16.6-4.9-24-16.5-24H592v170.3h20.7c11.5 0 15.7-6.6 15.7-24zM963.3 1188v345.7c0 66.2-48 110.8-107.5 110.8-59.6 0-107.5-44.6-107.5-110.8v-345.6c0-66.2 48-110.8 107.5-110.8s107.5 44.6 107.5 110.8zm-128.2-5.7v357.2c0 14 8.3 22.4 20.7 22.4 12.4 0 20.7-8.3 20.7-22.4v-357.2c0-14-8.3-22.3-20.7-22.3-12.4 0-20.7 8.2-20.7 22.3zM1088.1 1163.3V1317h63.7v78.5h-63.7v240.7h-86v-550.8H1175v77.8zM1201.4 1636.3v-550.8h86v550.8zM1457.8 1169v467.3h-85.2V1169h-62v-83.6h209.2v83.6zM1610.7 1542l-10.7 94.3h-77l73.7-550.8h80.2l73.6 550.8H1666l-8.2-94.3zm39.7-78.6l-13.2-153-17.4 153zM1887.7 1085.5c42.2 0 89.3 24.9 89.3 96.8V1289c0 28-6.6 50.4-30.5 67 24 16.5 30.5 38.8 30.5 67v116.5c0 72-47 96.8-89.3 96.8H1772v-550.8zm6.7 101.8c0-16.6-5-24-16.6-24H1858v160.4h20.6c11.6 0 15.8-6.6 15.8-24zm0 230.7c0-17.4-4.2-24-15.8-24H1858v164.5h19.8c11.6 0 16.6-7.4 16.6-24zM2190.4 1636.3h-174.5v-550.8h86V1557h88.5zM2217.7 1636.3v-550.8H2397v79.4h-93.4v150.5h62v75.3h-62v166.2h93.4v79.4z" fill="#fbb040"></path>
    <path d="M804.1 898.5c0-64.4-36.4-129.8-72.8-191.8-34.7-61.2-53.7-83.5-53.7-147.2 0-19 11.6-28.1 25.6-28.1 13.2 0 23.2 10 23.2 28.1v68.6H800v-60.3c0-64.1-30.2-104.4-76.9-113.2v-45.3H679V455c-58 10.8-85.8 61.2-85.8 121.9 0 63.7 43.9 139.7 76.1 191 32.3 55.4 52.1 94.3 52.1 143.9 0 20.7-9 33-27.3 33-19 0-28-13.2-28-33v-64.5h-74.5v57.9c0 66.1 32.7 106.2 87.4 113.6v45.7H723v-47c43.9-9.7 81-46.4 81-119z" fill="#FFF"></path>
  </g>
  <path d="M1021.9 1819.5H222.4a11.1 11.1 0 01-11.2-11.2 11.1 11.1 0 0111.2-11.1h799.5a11.1 11.1 0 0111.2 11.1 11.1 11.1 0 01-11.2 11.2zM2454.5 1819.5H1616a11.1 11.1 0 01-11.2-11.2 11.1 11.1 0 0111.2-11.1h838.6a11.1 11.1 0 0111.2 11.1 11.1 11.1 0 01-11.2 11.2z" fill="#fbb040"></path>
  <g>
    <path d="M2021.6 2324.8h-549.3v27.8h507.2a1206.4 1206.4 0 01-174.3 91.2c-148.7 63-306.8 94.9-469.7 94.9s-321-32-469.7-94.9q-36-15.2-71.1-32.8h-53.9a1228 1228 0 00115.2 56 1224.2 1224.2 0 00479.5 96.8c166.3 0 327.6-32.6 479.5-96.8a1232 1232 0 00209.3-113.6q20.6-14 40.8-28.8h-43.2l-.3.2z" fill="#fbb040"></path>
    <path d="M2470.6 852.4A1235.4 1235.4 0 001815 196.8a1224.2 1224.2 0 00-479.5-96.8c-166.3 0-327.6 32.6-479.5 96.8a1235.4 1235.4 0 00-655.5 655.6 1224.2 1224.2 0 00-96.9 479.5c0 166.3 32.6 327.6 96.9 479.5a1236.9 1236.9 0 00445.4 541.4v-.2h501.9v-27.8H649.4a1210.2 1210.2 0 01-425.8-523.2c-63-148.7-94.8-306.8-94.8-469.7s31.9-321 94.8-469.7A1210.3 1210.3 0 01865.8 220c148.8-63 306.8-94.8 469.7-94.8 163 0 321 31.9 469.7 94.8a1210.3 1210.3 0 01642.2 642.2c63 148.8 94.9 306.8 94.9 469.7s-32 321-94.9 469.7a1210.4 1210.4 0 01-350.8 466.8h39.2q36.7-31.4 70.8-65.4a1233.9 1233.9 0 00264-391.6 1224.2 1224.2 0 0096.8-479.5c0-166.3-32.6-327.6-96.8-479.5z" fill="#fbb040"></path>
  </g>
  <path d="M1274.7 2431.6h-.5a24.6 24.6 0 01-23.2-17.8l-39.2-134-40.9 66.2a14 14 0 01-11.9 6.6h-42.3v-28h34.5l38.6-62.2a26.6 26.6 0 0148 6.5l37.2 127 26.7-78.4a21.8 21.8 0 0140.7-1.5l9.3 22 36.2-70.8a23.4 23.4 0 0142.2 1.2l24.7 56.2h91.3v28h-100.4a14 14 0 01-12.8-8.4l-24.5-55.6-45.4 88.7a14 14 0 01-25.3-.9l-14.8-34.6-24.8 73a24.6 24.6 0 01-23.4 16.8z" fill="#fbb040"></path>
</svg>
