<?xml version="1.0" encoding="UTF-8"?>
<svg width="1542px" height="456px" viewBox="0 0 1542 456" version="1.1" xmlns="http://www.w3.org/2000/svg" xmlns:xlink="http://www.w3.org/1999/xlink">
    <!-- Generator: Sketch 63.1 (92452) - https://sketch.com -->
    <title>Group</title>
    <desc>Created with Sketch.</desc>
    <defs>
        <radialGradient cx="50%" cy="50%" fx="50%" fy="50%" r="50.0121831%" id="radialGradient-1">
            <stop stop-color="#9DDC98" offset="0%"></stop>
            <stop stop-color="#9AC997" offset="100%"></stop>
        </radialGradient>
    </defs>
    <g id="Page-1" stroke="none" stroke-width="1" fill="none" fill-rule="evenodd">
        <path d="M228,456 C353.920923,456 456,353.920923 456,228 C456,102.079077 353.920923,5.68434189e-14 228,5.68434189e-14 C102.079077,5.68434189e-14 2.27373675e-13,102.079077 2.27373675e-13,228 C2.27373675e-13,353.920923 102.079077,456 228,456 Z M227.933206,32.2972936 C335.904875,32.2972936 423.433206,119.825625 423.433206,227.797294 C423.433206,311.817819 370.430284,383.458849 296.036451,411.108372 L259.707635,291.040127 C279.676183,279.834294 293.199258,258.42846 293.199258,233.823794 C293.199258,197.633627 263.98016,168.297294 227.934617,168.297294 C191.894719,168.297294 162.669976,197.633627 162.669976,233.823794 C162.669976,258.42846 176.193051,279.834294 196.167243,291.037294 L159.829961,411.108372 C85.4361283,383.458849 32.4332062,311.817819 32.4332062,227.797294 C32.4332062,119.825625 119.961538,32.2972936 227.933206,32.2972936 Z" id="Logo" fill="url(#radialGradient-1)" transform="translate(228.000000, 228.000000) rotate(-225.000000) translate(-228.000000, -228.000000) "></path>
        <g id="Open-Podcast-Analyti" transform="translate(500.585938, 56.585938)" fill-rule="nonzero">
            <path d="M51.3984375,105.820312 C65.7421875,105.820312 76.9921875,101.074219 85.1484375,91.5820312 C93.3046875,82.0898438 97.3828125,69.1875 97.3828125,52.875 C97.3828125,36.515625 93.328125,23.6132812 85.21875,14.1679688 C77.109375,4.72265625 65.8828125,0 51.5390625,0 C37.2890625,0 26.0507812,4.69921875 17.8242188,14.0976562 C9.59765625,23.4960938 5.484375,36.375 5.484375,52.734375 C5.484375,69.140625 9.5625,82.0898438 17.71875,91.5820312 C25.875,101.074219 37.1015625,105.820312 51.3984375,105.820312 Z M51.3984375,99.0703125 C39.1171875,99.0703125 29.6953125,95.0507812 23.1328125,87.0117188 C16.5703125,78.9726562 13.2890625,67.59375 13.2890625,52.875 C13.2890625,38.203125 16.6054688,26.8828125 23.2382812,18.9140625 C29.8710938,10.9453125 39.3046875,6.9609375 51.5390625,6.9609375 C63.8203125,6.9609375 73.2304688,10.9101562 79.7695312,18.8085938 C86.3085938,26.7070312 89.578125,38.0625 89.578125,52.875 C89.578125,67.734375 86.3085938,79.1484375 79.7695312,87.1171875 C73.2304688,95.0859375 63.7734375,99.0703125 51.3984375,99.0703125 Z M112.962937,139.007812 L112.962937,109.898438 C112.962937,105.773438 112.869187,101.976562 112.681687,98.5078125 L112.681687,98.5078125 L112.47075,92.6015625 L112.962937,92.6015625 C118.353562,101.414062 126.931687,105.820312 138.697312,105.820312 C148.541062,105.820312 156.310594,102.363281 162.005906,95.4492188 C167.701219,88.5351562 170.548875,78.796875 170.548875,66.234375 C170.548875,53.296875 167.841844,43.4414062 162.427781,36.6679688 C157.013719,29.8945312 149.150437,26.5078125 138.837937,26.5078125 C127.306687,26.5078125 118.916062,30.6328125 113.666062,38.8828125 L113.666062,38.8828125 L113.244187,38.8828125 L111.90825,27.984375 L106.002,27.984375 L106.002,139.007812 L112.962937,139.007812 Z M138.556687,99.6328125 C129.509812,99.6328125 122.982469,97.078125 118.974656,91.96875 C114.966844,86.859375 112.962937,78.328125 112.962937,66.375 L112.962937,66.375 L112.962937,64.125 C112.962937,53.0625 115.048875,45.0820312 119.22075,40.1835938 C123.392625,35.2851562 129.931687,32.8359375 138.837937,32.8359375 C155.056687,32.8359375 163.166062,44.0625 163.166062,66.515625 C163.166062,76.96875 161.021531,85.1015625 156.732469,90.9140625 C152.443406,96.7265625 146.384812,99.6328125 138.556687,99.6328125 Z M209.332125,105.820312 C213.738375,105.820312 217.769625,105.480469 221.425875,104.800781 C225.082125,104.121094 229.0665,102.84375 233.379,100.96875 L233.379,100.96875 L233.379,94.640625 C228.3165,96.65625 224.132906,97.96875 220.828219,98.578125 C217.523531,99.1875 213.6915,99.4921875 209.332125,99.4921875 C200.379,99.4921875 193.500094,96.7265625 188.695406,91.1953125 C183.890719,85.6640625 181.4415,77.6484375 181.34775,67.1484375 L181.34775,67.1484375 L236.402437,67.1484375 L236.402437,61.5234375 C236.402437,50.7421875 233.800875,42.2109375 228.59775,35.9296875 C223.394625,29.6484375 216.293063,26.5078125 207.293063,26.5078125 C197.121188,26.5078125 189.03525,30.1757812 183.03525,37.5117188 C177.03525,44.8476562 174.03525,54.609375 174.03525,66.796875 C174.03525,79.125 177.140719,88.7109375 183.351656,95.5546875 C189.562594,102.398438 198.22275,105.820312 209.332125,105.820312 Z M229.019625,60.9609375 L181.769625,60.9609375 C182.519625,51.8203125 185.121188,44.8242188 189.574313,39.9726562 C194.027438,35.1210938 199.933688,32.6953125 207.293063,32.6953125 C214.089938,32.6953125 219.41025,35.1914062 223.254,40.1835938 C227.09775,45.1757812 229.019625,52.1015625 229.019625,60.9609375 L229.019625,60.9609375 Z M251.209125,104.414062 L251.209125,62.2265625 C251.209125,51.8671875 253.330219,44.3789062 257.572406,39.7617188 C261.814594,35.1445312 268.506,32.8359375 277.646625,32.8359375 C284.4435,32.8359375 289.459125,34.5820312 292.6935,38.0742188 C295.927875,41.5664062 297.545062,47.15625 297.545062,54.84375 L297.545062,54.84375 L297.545062,104.414062 L304.435687,104.414062 L304.435687,54.421875 C304.435687,35.8125 295.763812,26.5078125 278.420062,26.5078125 C265.716937,26.5078125 256.881,30.4921875 251.91225,38.4609375 L251.91225,38.4609375 L251.490375,38.4609375 L250.154437,27.984375 L244.248187,27.984375 L244.248187,104.414062 L251.209125,104.414062 Z M31.1484375,227.414062 L31.1484375,190.851562 L40.5,190.851562 C53.25,190.851562 63.0820312,187.921875 69.9960938,182.0625 C76.9101562,176.203125 80.3671875,167.742188 80.3671875,156.679688 C80.3671875,146.039062 77.1210938,138.035156 70.6289062,132.667969 C64.1367188,127.300781 54.65625,124.617188 42.1875,124.617188 L42.1875,124.617188 L9.3515625,124.617188 L9.3515625,227.414062 L31.1484375,227.414062 Z M38.3203125,172.992188 L31.1484375,172.992188 L31.1484375,142.476562 L41.0625,142.476562 C47.015625,142.476562 51.3867188,143.695312 54.1757812,146.132812 C56.9648438,148.570312 58.359375,152.34375 58.359375,157.453125 C58.359375,162.515625 56.6953125,166.371094 53.3671875,169.019531 C50.0390625,171.667969 45.0234375,172.992188 38.3203125,172.992188 L38.3203125,172.992188 Z M117.955125,228.820312 C130.002,228.820312 139.400437,225.210938 146.150437,217.992188 C152.900437,210.773438 156.275437,200.765625 156.275437,187.96875 C156.275437,179.71875 154.728562,172.523438 151.634812,166.382812 C148.541062,160.242188 144.111375,155.53125 138.34575,152.25 C132.580125,148.96875 125.923875,147.328125 118.377,147.328125 C106.236375,147.328125 96.8145,150.890625 90.111375,158.015625 C83.40825,165.140625 80.0566875,175.125 80.0566875,187.96875 C80.0566875,196.21875 81.6035625,203.4375 84.6973125,209.625 C87.7910625,215.8125 92.22075,220.558594 97.986375,223.863281 C103.752,227.167969 110.40825,228.820312 117.955125,228.820312 Z M118.236375,211.59375 C112.47075,211.59375 108.310594,209.601562 105.755906,205.617188 C103.201219,201.632812 101.923875,195.75 101.923875,187.96875 C101.923875,180.140625 103.1895,174.292969 105.72075,170.425781 C108.252,166.558594 112.377,164.625 118.09575,164.625 C123.861375,164.625 128.009812,166.570312 130.541062,170.460938 C133.072312,174.351562 134.337937,180.1875 134.337937,187.96875 C134.337937,195.796875 133.084031,201.691406 130.576219,205.652344 C128.068406,209.613281 123.955125,211.59375 118.236375,211.59375 Z M185.636813,228.820312 C195.621188,228.820312 203.050875,224.953125 207.925875,217.21875 L207.925875,217.21875 L208.839938,217.21875 L212.988375,227.414062 L229.4415,227.414062 L229.4415,118.007812 L207.925875,118.007812 L207.925875,143.179688 C207.925875,147.773438 208.464938,153 209.543063,158.859375 L209.543063,158.859375 L208.839938,158.859375 C203.636813,151.171875 196.089938,147.328125 186.199313,147.328125 C176.777438,147.328125 169.382906,150.925781 164.015719,158.121094 C158.648531,165.316406 155.964938,175.359375 155.964938,188.25 C155.964938,200.953125 158.601656,210.890625 163.875094,218.0625 C169.148531,225.234375 176.402438,228.820312 185.636813,228.820312 Z M193.16025,211.734375 C188.1915,211.734375 184.371188,209.800781 181.699313,205.933594 C179.027438,202.066406 177.6915,196.265625 177.6915,188.53125 C177.6915,180.796875 179.015719,174.902344 181.664156,170.847656 C184.312594,166.792969 188.027438,164.765625 192.808688,164.765625 C198.668063,164.765625 202.898531,166.59375 205.500094,170.25 C208.101656,173.90625 209.402438,179.953125 209.402438,188.390625 L209.402438,188.390625 L209.402438,190.710938 C209.168063,198.351562 207.773531,203.765625 205.218844,206.953125 C202.664156,210.140625 198.644625,211.734375 193.16025,211.734375 Z M270.545062,228.820312 C275.935687,228.820312 280.400531,228.398438 283.939594,227.554688 C287.478656,226.710938 290.982562,225.1875 294.451312,222.984375 L294.451312,222.984375 L294.451312,204.632812 C290.935687,206.976562 287.420062,208.699219 283.904437,209.800781 C280.388812,210.902344 276.5685,211.453125 272.4435,211.453125 C261.28725,211.453125 255.709125,203.765625 255.709125,188.390625 C255.709125,172.546875 261.28725,164.625 272.4435,164.625 C275.34975,164.625 278.256,165.058594 281.16225,165.925781 C284.0685,166.792969 287.209125,167.90625 290.584125,169.265625 L290.584125,169.265625 L296.91225,152.671875 C289.6935,149.109375 281.53725,147.328125 272.4435,147.328125 C260.021625,147.328125 250.482562,150.855469 243.826312,157.910156 C237.170062,164.964844 233.841937,175.171875 233.841937,188.53125 C233.841937,215.390625 246.076312,228.820312 270.545062,228.820312 Z M318.53925,228.820312 C324.679875,228.820312 329.660344,227.941406 333.480656,226.183594 C337.300969,224.425781 341.015813,221.273438 344.625188,216.726562 L344.625188,216.726562 L345.187688,216.726562 L349.336125,227.414062 L364.312688,227.414062 L364.312688,175.03125 C364.312688,165.65625 361.500188,158.671875 355.875188,154.078125 C350.250188,149.484375 342.16425,147.1875 331.617375,147.1875 C320.60175,147.1875 310.5705,149.554688 301.523625,154.289062 L301.523625,154.289062 L308.625188,168.773438 C317.109563,164.976562 324.492375,163.078125 330.773625,163.078125 C338.929875,163.078125 343.008,167.0625 343.008,175.03125 L343.008,175.03125 L343.008,178.476562 L329.367375,178.898438 C317.60175,179.320312 308.800969,181.511719 302.965031,185.472656 C297.129094,189.433594 294.211125,195.585938 294.211125,203.929688 C294.211125,211.898438 296.379094,218.039062 300.715031,222.351562 C305.050969,226.664062 310.992375,228.820312 318.53925,228.820312 Z M326.625188,213.140625 C319.687688,213.140625 316.218938,210.117188 316.218938,204.070312 C316.218938,199.851562 317.742375,196.710938 320.78925,194.648438 C323.836125,192.585938 328.47675,191.460938 334.711125,191.273438 L334.711125,191.273438 L343.008,190.992188 L343.008,197.460938 C343.008,202.195312 341.519719,205.992188 338.543156,208.851562 C335.566594,211.710938 331.593938,213.140625 326.625188,213.140625 Z M394.4475,228.820312 C405.60375,228.820312 413.982656,226.710938 419.584219,222.492188 C425.185781,218.273438 427.986562,212.132812 427.986562,204.070312 C427.986562,200.179688 427.306875,196.828125 425.9475,194.015625 C424.588125,191.203125 422.47875,188.71875 419.619375,186.5625 C416.76,184.40625 412.26,182.085938 406.119375,179.601562 C399.22875,176.835938 394.763906,174.75 392.724844,173.34375 C390.685781,171.9375 389.66625,170.273438 389.66625,168.351562 C389.66625,164.929688 392.830312,163.21875 399.158437,163.21875 C402.720937,163.21875 406.213125,163.757812 409.635,164.835938 C413.056875,165.914062 416.736562,167.296875 420.674062,168.984375 L420.674062,168.984375 L427.142812,153.515625 C418.189687,149.390625 408.97875,147.328125 399.51,147.328125 C389.5725,147.328125 381.896719,149.238281 376.482656,153.058594 C371.068594,156.878906 368.361562,162.28125 368.361562,169.265625 C368.361562,173.34375 369.006094,176.777344 370.295156,179.566406 C371.584219,182.355469 373.646719,184.828125 376.482656,186.984375 C379.318594,189.140625 383.76,191.484375 389.806875,194.015625 C394.025625,195.796875 397.400625,197.355469 399.931875,198.691406 C402.463125,200.027344 404.244375,201.222656 405.275625,202.277344 C406.306875,203.332031 406.8225,204.703125 406.8225,206.390625 C406.8225,210.890625 402.931875,213.140625 395.150625,213.140625 C391.35375,213.140625 386.959219,212.507812 381.967031,211.242188 C376.974844,209.976562 372.486562,208.40625 368.502187,206.53125 L368.502187,206.53125 L368.502187,224.25 C372.017812,225.75 375.79125,226.886719 379.8225,227.660156 C383.85375,228.433594 388.72875,228.820312 394.4475,228.820312 Z M458.402625,228.820312 C466.183875,228.820312 472.746375,227.625 478.090125,225.234375 L478.090125,225.234375 L478.090125,209.273438 C472.840125,210.914062 468.340125,211.734375 464.590125,211.734375 C461.777625,211.734375 459.515906,211.007812 457.804969,209.554688 C456.094031,208.101562 455.238562,205.851562 455.238562,202.804688 L455.238562,202.804688 L455.238562,164.90625 L477.246375,164.90625 L477.246375,148.804688 L455.238562,148.804688 L455.238562,132.070312 L441.527625,132.070312 L435.340125,148.664062 L423.527625,155.835938 L423.527625,164.90625 L433.79325,164.90625 L433.79325,202.804688 C433.79325,211.476562 435.750281,217.980469 439.664344,222.316406 C443.578406,226.652344 449.8245,228.820312 458.402625,228.820312 Z M517.125375,227.414062 L524.5785,202.945312 L562.055063,202.945312 L569.508188,227.414062 L592.992563,227.414062 L556.570688,124.195312 L529.92225,124.195312 L493.641,227.414062 L517.125375,227.414062 Z M556.851938,184.664062 L530.062875,184.664062 C537.375375,160.992188 541.805063,146.15625 543.351938,140.15625 C543.726938,141.84375 544.348031,144.140625 545.215219,147.046875 C546.082406,149.953125 549.961313,162.492188 556.851938,184.664062 L556.851938,184.664062 Z M612.439875,227.414062 L612.439875,190.429688 C612.439875,181.148438 613.775813,174.503906 616.447688,170.496094 C619.119563,166.488281 623.4555,164.484375 629.4555,164.484375 C633.86175,164.484375 637.072688,165.902344 639.088313,168.738281 C641.103938,171.574219 642.11175,175.828125 642.11175,181.5 L642.11175,181.5 L642.11175,227.414062 L663.557063,227.414062 L663.557063,176.15625 C663.557063,166.828125 661.189875,159.691406 656.4555,154.746094 C651.721125,149.800781 644.783625,147.328125 635.643,147.328125 C630.29925,147.328125 625.529719,148.300781 621.334406,150.246094 C617.139094,152.191406 613.846125,155.0625 611.4555,158.859375 L611.4555,158.859375 L610.260188,158.859375 L607.377375,148.804688 L590.994563,148.804688 L590.994563,227.414062 L612.439875,227.414062 Z M691.512187,228.820312 C697.652812,228.820312 702.633281,227.941406 706.453594,226.183594 C710.273906,224.425781 713.98875,221.273438 717.598125,216.726562 L717.598125,216.726562 L718.160625,216.726562 L722.309062,227.414062 L737.285625,227.414062 L737.285625,175.03125 C737.285625,165.65625 734.473125,158.671875 728.848125,154.078125 C723.223125,149.484375 715.137187,147.1875 704.590312,147.1875 C693.574687,147.1875 683.543437,149.554688 674.496562,154.289062 L674.496562,154.289062 L681.598125,168.773438 C690.0825,164.976562 697.465312,163.078125 703.746562,163.078125 C711.902812,163.078125 715.980937,167.0625 715.980937,175.03125 L715.980937,175.03125 L715.980937,178.476562 L702.340312,178.898438 C690.574687,179.320312 681.773906,181.511719 675.937969,185.472656 C670.102031,189.433594 667.184062,195.585938 667.184062,203.929688 C667.184062,211.898438 669.352031,218.039062 673.687969,222.351562 C678.023906,226.664062 683.965312,228.820312 691.512187,228.820312 Z M699.598125,213.140625 C692.660625,213.140625 689.191875,210.117188 689.191875,204.070312 C689.191875,199.851562 690.715312,196.710938 693.762187,194.648438 C696.809062,192.585938 701.449687,191.460938 707.684062,191.273438 L707.684062,191.273438 L715.980937,190.992188 L715.980937,197.460938 C715.980937,202.195312 714.492656,205.992188 711.516094,208.851562 C708.539531,211.710938 704.566875,213.140625 699.598125,213.140625 Z M767.561062,227.414062 L767.561062,118.007812 L746.11575,118.007812 L746.11575,227.414062 L767.561062,227.414062 Z M781.383375,262.007812 C788.93025,262.007812 795.527906,259.96875 801.176344,255.890625 C806.824781,251.8125 811.172437,245.671875 814.219312,237.46875 L814.219312,237.46875 L847.477125,148.804688 L824.484937,148.804688 L809.93025,193.03125 C808.43025,197.296875 807.422437,201.84375 806.906812,206.671875 L806.906812,206.671875 L806.484937,206.671875 C806.016187,201.421875 805.149,196.875 803.883375,193.03125 L803.883375,193.03125 L789.047437,148.804688 L765.563062,148.804688 L796.781812,226.851562 L795.516187,230.71875 C793.922437,235.40625 791.707594,238.910156 788.871656,241.230469 C786.035719,243.550781 782.719312,244.710938 778.922437,244.710938 C775.875562,244.710938 773.063062,244.40625 770.484937,243.796875 L770.484937,243.796875 L770.484937,260.8125 C774.047437,261.609375 777.68025,262.007812 781.383375,262.007812 Z M872.408812,228.820312 C880.190062,228.820312 886.752562,227.625 892.096312,225.234375 L892.096312,225.234375 L892.096312,209.273438 C886.846312,210.914062 882.346312,211.734375 878.596312,211.734375 C875.783812,211.734375 873.522094,211.007812 871.811156,209.554688 C870.100219,208.101562 869.24475,205.851562 869.24475,202.804688 L869.24475,202.804688 L869.24475,164.90625 L891.252562,164.90625 L891.252562,148.804688 L869.24475,148.804688 L869.24475,132.070312 L855.533812,132.070312 L849.346312,148.664062 L837.533812,155.835938 L837.533812,164.90625 L847.799437,164.90625 L847.799437,202.804688 C847.799437,211.476562 849.756469,217.980469 853.670531,222.316406 C857.584594,226.652344 863.830687,228.820312 872.408812,228.820312 Z M905.49675,139.03125 C909.387375,139.03125 912.305344,138.105469 914.250656,136.253906 C916.195969,134.402344 917.168625,131.8125 917.168625,128.484375 C917.168625,121.5 913.278,118.007812 905.49675,118.007812 C897.7155,118.007812 893.824875,121.5 893.824875,128.484375 C893.824875,135.515625 897.7155,139.03125 905.49675,139.03125 Z M916.18425,227.414062 L916.18425,148.804688 L894.738937,148.804688 L894.738937,227.414062 L916.18425,227.414062 Z M957.358125,228.820312 C962.74875,228.820312 967.213594,228.398438 970.752656,227.554688 C974.291719,226.710938 977.795625,225.1875 981.264375,222.984375 L981.264375,222.984375 L981.264375,204.632812 C977.74875,206.976562 974.233125,208.699219 970.7175,209.800781 C967.201875,210.902344 963.381562,211.453125 959.256562,211.453125 C948.100312,211.453125 942.522187,203.765625 942.522187,188.390625 C942.522187,172.546875 948.100312,164.625 959.256562,164.625 C962.162812,164.625 965.069062,165.058594 967.975312,165.925781 C970.881562,166.792969 974.022187,167.90625 977.397187,169.265625 L977.397187,169.265625 L983.725312,152.671875 C976.506562,149.109375 968.350312,147.328125 959.256562,147.328125 C946.834687,147.328125 937.295625,150.855469 930.639375,157.910156 C923.983125,164.964844 920.655,175.171875 920.655,188.53125 C920.655,215.390625 932.889375,228.820312 957.358125,228.820312 Z M1007.532,228.820312 C1018.68825,228.820312 1027.06716,226.710938 1032.66872,222.492188 C1038.27028,218.273438 1041.07106,212.132812 1041.07106,204.070312 C1041.07106,200.179688 1040.39137,196.828125 1039.032,194.015625 C1037.67262,191.203125 1035.56325,188.71875 1032.70387,186.5625 C1029.8445,184.40625 1025.3445,182.085938 1019.20387,179.601562 C1012.31325,176.835938 1007.84841,174.75 1005.80934,173.34375 C1003.77028,171.9375 1002.75075,170.273438 1002.75075,168.351562 C1002.75075,164.929688 1005.91481,163.21875 1012.24294,163.21875 C1015.80544,163.21875 1019.29762,163.757812 1022.7195,164.835938 C1026.14137,165.914062 1029.82106,167.296875 1033.75856,168.984375 L1033.75856,168.984375 L1040.22731,153.515625 C1031.27419,149.390625 1022.06325,147.328125 1012.5945,147.328125 C1002.657,147.328125 994.981219,149.238281 989.567156,153.058594 C984.153094,156.878906 981.446062,162.28125 981.446062,169.265625 C981.446062,173.34375 982.090594,176.777344 983.379656,179.566406 C984.668719,182.355469 986.731219,184.828125 989.567156,186.984375 C992.403094,189.140625 996.8445,191.484375 1002.89137,194.015625 C1007.11012,195.796875 1010.48512,197.355469 1013.01637,198.691406 C1015.54762,200.027344 1017.32887,201.222656 1018.36012,202.277344 C1019.39137,203.332031 1019.907,204.703125 1019.907,206.390625 C1019.907,210.890625 1016.01637,213.140625 1008.23512,213.140625 C1004.43825,213.140625 1000.04372,212.507812 995.051531,211.242188 C990.059344,209.976562 985.571062,208.40625 981.586687,206.53125 L981.586687,206.53125 L981.586687,224.25 C985.102312,225.75 988.87575,226.886719 992.907,227.660156 C996.93825,228.433594 1001.81325,228.820312 1007.532,228.820312 Z" id="OpenPodcastAnalytics" fill="#9BCA97"></path>
            <path d="M34.3125,350.414062 C48.046875,301.523438 55.6054688,274.429688 56.9882812,269.132812 C58.3710938,263.835938 59.4375,259.148438 60.1875,255.070312 C61.125,259.242188 62.53125,264.585938 64.40625,271.101562 L64.40625,271.101562 L86.9765625,350.414062 L92.8828125,350.414062 L121.289062,247.617188 L114.046875,247.617188 C100.546875,297.679688 93.3164062,324.609375 92.3554688,328.40625 C91.3945312,332.203125 90.609375,335.789062 90,339.164062 C88.96875,334.101562 87.2578125,327.445312 84.8671875,319.195312 L84.8671875,319.195312 L64.265625,247.617188 L56.3203125,247.617188 L38.7421875,309.984375 C35.0859375,322.96875 32.6953125,332.648438 31.5703125,339.023438 C31.2421875,337.148438 30.8789062,335.285156 30.4804688,333.433594 C30.0820312,331.582031 29.6367188,329.660156 29.1445312,327.667969 C28.6523438,325.675781 28.1015625,323.542969 27.4921875,321.269531 C26.8828125,318.996094 26.2265625,316.523438 25.5234375,313.851562 L25.5234375,313.851562 L7.5234375,247.617188 L0,247.617188 L28.265625,350.414062 L34.3125,350.414062 Z M150.650437,351.820312 C161.291062,351.820312 169.634812,348.316406 175.681687,341.308594 C181.728562,334.300781 184.752,324.5625 184.752,312.09375 C184.752,299.8125 181.763719,290.144531 175.787156,283.089844 C169.810594,276.035156 161.572312,272.507812 151.072312,272.507812 C140.525437,272.507812 132.228562,275.988281 126.181687,282.949219 C120.134812,289.910156 117.111375,299.625 117.111375,312.09375 C117.111375,320.015625 118.47075,327 121.1895,333.046875 C123.90825,339.09375 127.822312,343.734375 132.931687,346.96875 C138.041062,350.203125 143.947312,351.820312 150.650437,351.820312 Z M150.931687,345.492188 C142.494187,345.492188 135.966844,342.550781 131.349656,336.667969 C126.732469,330.785156 124.423875,322.59375 124.423875,312.09375 C124.423875,301.5 126.709031,293.308594 131.279344,287.519531 C135.849656,281.730469 142.353562,278.835938 150.791062,278.835938 C159.228562,278.835938 165.779344,281.742188 170.443406,287.554688 C175.107469,293.367188 177.4395,301.546875 177.4395,312.09375 C177.4395,322.59375 175.130906,330.785156 170.513719,336.667969 C165.896531,342.550781 159.369187,345.492188 150.931687,345.492188 Z M199.629,350.414062 L199.629,308.226562 C199.629,299.789062 201.714938,292.804688 205.886813,287.273438 C210.058688,281.742188 215.402438,278.976562 221.918063,278.976562 C225.339937,278.976562 228.644625,279.375 231.832125,280.171875 L231.832125,280.171875 L233.168063,273.492188 C229.464937,272.835938 225.996187,272.507812 222.761813,272.507812 C217.699313,272.507812 213.386813,273.644531 209.824313,275.917969 C206.261813,278.191406 202.91025,282.140625 199.769625,287.765625 L199.769625,287.765625 L199.277438,287.765625 L198.574313,273.984375 L192.668063,273.984375 L192.668063,350.414062 L199.629,350.414062 Z M242.420062,350.414062 L242.420062,323.203125 L254.935687,311.8125 L283.97475,350.414062 L292.341937,350.414062 L259.646625,306.609375 L289.740375,273.984375 L281.302875,273.984375 L242.279437,316.875 L241.927875,316.875 L242.420062,295.851562 L242.420062,241.007812 L235.459125,241.007812 L235.459125,350.414062 L242.420062,350.414062 Z M295.336125,259.570312 C296.78925,259.570312 297.925969,258.960938 298.746281,257.742188 C299.566594,256.523438 299.97675,254.859375 299.97675,252.75 C299.97675,250.59375 299.566594,248.929688 298.746281,247.757812 C297.925969,246.585938 296.78925,246 295.336125,246 C292.383,246 290.906438,248.25 290.906438,252.75 C290.906438,257.296875 292.383,259.570312 295.336125,259.570312 Z M298.85175,350.414062 L298.85175,273.984375 L291.890813,273.984375 L291.890813,350.414062 L298.85175,350.414062 Z M318.158437,350.414062 L318.158437,308.226562 C318.158437,297.867188 320.279531,290.378906 324.521719,285.761719 C328.763906,281.144531 335.455312,278.835938 344.595937,278.835938 C351.392812,278.835938 356.408437,280.582031 359.642812,284.074219 C362.877187,287.566406 364.494375,293.15625 364.494375,300.84375 L364.494375,300.84375 L364.494375,350.414062 L371.385,350.414062 L371.385,300.421875 C371.385,281.8125 362.713125,272.507812 345.369375,272.507812 C332.66625,272.507812 323.830312,276.492188 318.861562,284.460938 L318.861562,284.460938 L318.439687,284.460938 L317.10375,273.984375 L311.1975,273.984375 L311.1975,350.414062 L318.158437,350.414062 Z M403.488562,385.007812 C415.582312,385.007812 424.898719,382.816406 431.437781,378.433594 C437.976844,374.050781 441.246375,367.828125 441.246375,359.765625 C441.246375,353.203125 439.04325,348.246094 434.637,344.894531 C430.23075,341.542969 423.879187,339.867188 415.582312,339.867188 L415.582312,339.867188 L402.222937,339.867188 C397.863562,339.867188 394.758094,339.304688 392.906531,338.179688 C391.054969,337.054688 390.129187,335.273438 390.129187,332.835938 C390.129187,330.632812 390.85575,328.546875 392.308875,326.578125 C393.762,324.609375 395.871375,322.898438 398.637,321.445312 C400.04325,321.726562 402.48075,321.867188 405.9495,321.867188 C414.1995,321.867188 420.773719,319.582031 425.672156,315.011719 C430.570594,310.441406 433.019812,304.476562 433.019812,297.117188 C433.019812,290.835938 430.910437,285.070312 426.691687,279.820312 L426.691687,279.820312 L442.512,278.835938 L442.512,273.984375 L418.04325,273.984375 C415.277625,273 411.387,272.507812 406.371375,272.507812 C398.121375,272.507812 391.570594,274.816406 386.719031,279.433594 C381.867469,284.050781 379.441687,290.179688 379.441687,297.820312 C379.441687,302.882812 380.683875,307.371094 383.16825,311.285156 C385.652625,315.199219 389.121375,318.070312 393.5745,319.898438 C387.058875,323.789062 383.801062,328.289062 383.801062,333.398438 C383.801062,335.742188 384.492469,337.816406 385.875281,339.621094 C387.258094,341.425781 389.097937,342.820312 391.394812,343.804688 C385.816687,345.070312 381.398719,347.4375 378.140906,350.90625 C374.883094,354.375 373.254187,358.734375 373.254187,363.984375 C373.254187,370.59375 375.890906,375.75 381.164344,379.453125 C386.437781,383.15625 393.879187,385.007812 403.488562,385.007812 Z M406.23075,316.453125 C400.23075,316.453125 395.437781,314.824219 391.851844,311.566406 C388.265906,308.308594 386.472937,303.726562 386.472937,297.820312 C386.472937,291.585938 388.219031,286.722656 391.711219,283.230469 C395.203406,279.738281 399.996375,277.992188 406.090125,277.992188 C412.371375,277.992188 417.258094,279.621094 420.750281,282.878906 C424.242469,286.136719 425.988562,291.023438 425.988562,297.539062 C425.988562,303.679688 424.289344,308.367188 420.890906,311.601562 C417.492469,314.835938 412.60575,316.453125 406.23075,316.453125 Z M404.051062,379.101562 C388.441687,379.101562 380.637,373.851562 380.637,363.351562 C380.637,352.335938 387.644812,346.828125 401.660437,346.828125 L401.660437,346.828125 L414.176062,346.828125 C421.207312,346.828125 426.29325,347.859375 429.433875,349.921875 C432.5745,351.984375 434.144812,355.3125 434.144812,359.90625 C434.144812,372.703125 424.113562,379.101562 404.051062,379.101562 Z M515.648813,351.820312 C528.070688,351.820312 539.250375,349.710938 549.187875,345.492188 L549.187875,345.492188 L549.187875,298.59375 L511.289438,298.59375 L511.289438,305.34375 L541.875375,305.34375 L541.875375,341.484375 C535.266,344.15625 527.226938,345.492188 517.758188,345.492188 C503.133188,345.492188 492.04725,341.589844 484.500375,333.785156 C476.9535,325.980469 473.180063,314.34375 473.180063,298.875 C473.180063,284.671875 477.152719,273.386719 485.098031,265.019531 C493.043344,256.652344 503.789438,252.46875 517.336313,252.46875 C526.898813,252.46875 536.133188,254.53125 545.039438,258.65625 L545.039438,258.65625 L547.92225,252.1875 C539.016,248.0625 528.961313,246 517.758188,246 C507.398813,246 498.223031,248.203125 490.230844,252.609375 C482.238656,257.015625 476.098031,263.261719 471.808969,271.347656 C467.519906,279.433594 465.375375,288.703125 465.375375,299.15625 C465.375375,315.9375 469.699594,328.910156 478.348031,338.074219 C486.996469,347.238281 499.430063,351.820312 515.648813,351.820312 Z M566.947688,350.414062 L566.947688,308.226562 C566.947688,299.789062 569.033625,292.804688 573.2055,287.273438 C577.377375,281.742188 582.721125,278.976562 589.23675,278.976562 C592.658625,278.976562 595.963313,279.375 599.150813,280.171875 L599.150813,280.171875 L600.48675,273.492188 C596.783625,272.835938 593.314875,272.507812 590.0805,272.507812 C585.018,272.507812 580.7055,273.644531 577.143,275.917969 C573.5805,278.191406 570.228938,282.140625 567.088313,287.765625 L567.088313,287.765625 L566.596125,287.765625 L565.893,273.984375 L559.98675,273.984375 L559.98675,350.414062 L566.947688,350.414062 Z M629.004375,351.820312 C639.645,351.820312 647.98875,348.316406 654.035625,341.308594 C660.0825,334.300781 663.105937,324.5625 663.105937,312.09375 C663.105937,299.8125 660.117656,290.144531 654.141094,283.089844 C648.164531,276.035156 639.92625,272.507812 629.42625,272.507812 C618.879375,272.507812 610.5825,275.988281 604.535625,282.949219 C598.48875,289.910156 595.465312,299.625 595.465312,312.09375 C595.465312,320.015625 596.824687,327 599.543437,333.046875 C602.262187,339.09375 606.17625,343.734375 611.285625,346.96875 C616.395,350.203125 622.30125,351.820312 629.004375,351.820312 Z M629.285625,345.492188 C620.848125,345.492188 614.320781,342.550781 609.703594,336.667969 C605.086406,330.785156 602.777812,322.59375 602.777812,312.09375 C602.777812,301.5 605.062969,293.308594 609.633281,287.519531 C614.203594,281.730469 620.7075,278.835938 629.145,278.835938 C637.5825,278.835938 644.133281,281.742188 648.797344,287.554688 C653.461406,293.367188 655.793437,301.546875 655.793437,312.09375 C655.793437,322.59375 653.484844,330.785156 648.867656,336.667969 C644.250469,342.550781 637.723125,345.492188 629.285625,345.492188 Z M696.264187,351.820312 C708.967312,351.820312 717.80325,347.835938 722.772,339.867188 L722.772,339.867188 L723.193875,339.867188 L724.4595,350.414062 L730.36575,350.414062 L730.36575,273.984375 L723.475125,273.984375 L723.475125,316.171875 C723.475125,326.53125 721.330594,334.007812 717.041531,338.601562 C712.752469,343.195312 706.061062,345.492188 696.967312,345.492188 C690.170437,345.492188 685.154812,343.746094 681.920437,340.253906 C678.686062,336.761719 677.068875,331.171875 677.068875,323.484375 L677.068875,323.484375 L677.068875,273.984375 L670.17825,273.984375 L670.17825,323.90625 C670.17825,342.515625 678.873562,351.820312 696.264187,351.820312 Z M749.672437,385.007812 L749.672437,355.898438 C749.672437,351.773438 749.578687,347.976562 749.391187,344.507812 L749.391187,344.507812 L749.18025,338.601562 L749.672437,338.601562 C755.063062,347.414062 763.641187,351.820312 775.406812,351.820312 C785.250562,351.820312 793.020094,348.363281 798.715406,341.449219 C804.410719,334.535156 807.258375,324.796875 807.258375,312.234375 C807.258375,299.296875 804.551344,289.441406 799.137281,282.667969 C793.723219,275.894531 785.859937,272.507812 775.547437,272.507812 C764.016187,272.507812 755.625562,276.632812 750.375562,284.882812 L750.375562,284.882812 L749.953687,284.882812 L748.61775,273.984375 L742.7115,273.984375 L742.7115,385.007812 L749.672437,385.007812 Z M775.266187,345.632812 C766.219312,345.632812 759.691969,343.078125 755.684156,337.96875 C751.676344,332.859375 749.672437,324.328125 749.672437,312.375 L749.672437,312.375 L749.672437,310.125 C749.672437,299.0625 751.758375,291.082031 755.93025,286.183594 C760.102125,281.285156 766.641187,278.835938 775.547437,278.835938 C791.766187,278.835938 799.875562,290.0625 799.875562,312.515625 C799.875562,322.96875 797.731031,331.101562 793.441969,336.914062 C789.152906,342.726562 783.094312,345.632812 775.266187,345.632812 Z" id="WorkingGroup" fill="#C3C3C3"></path>
        </g>
    </g>
</svg>
