<?xml version="1.0" standalone="no"?>
<!DOCTYPE svg PUBLIC "-//W3C//DTD SVG 20010904//EN"
 "http://www.w3.org/TR/2001/REC-SVG-20010904/DTD/svg10.dtd">
<svg version="1.0" xmlns="http://www.w3.org/2000/svg"
 width="512.000000pt" height="512.000000pt" viewBox="0 0 512.000000 512.000000"
 preserveAspectRatio="xMidYMid meet">
<metadata>
Created by potrace 1.11, written by Peter Selinger 2001-2013
</metadata>
<g transform="translate(0.000000,512.000000) scale(0.100000,-0.100000)"
fill="#000000" stroke="none">
<path d="M2370 5114 c-513 -48 -957 -217 -1357 -515 -126 -94 -398 -366 -492
-492 -215 -289 -365 -604 -446 -942 -54 -225 -69 -351 -69 -600 -1 -422 74
-752 253 -1121 134 -276 266 -460 496 -689 229 -229 411 -360 687 -495 240
-117 497 -196 773 -237 166 -24 524 -24 690 0 444 66 845 231 1202 498 126 94
398 366 492 492 215 289 365 604 446 942 55 228 69 351 69 605 0 254 -14 377
-69 605 -44 183 -101 341 -185 513 -135 276 -266 458 -495 687 -229 229 -411
360 -687 495 -239 117 -502 197 -768 235 -111 16 -447 27 -540 19z m511 -384
c716 -105 1324 -549 1648 -1201 411 -828 256 -1824 -388 -2493 -565 -585
-1404 -810 -2189 -585 -846 242 -1472 984 -1572 1864 -15 132 -12 387 5 522
15 117 51 282 81 378 28 87 95 255 102 255 4 0 284 -149 622 -330 486 -260
615 -333 613 -347 -2 -10 -8 -49 -14 -88 -39 -237 78 -525 272 -671 144 -109
281 -156 454 -155 163 0 283 36 415 124 298 199 403 617 235 937 -96 181 -249
307 -450 369 -93 29 -238 37 -332 18 l-72 -14 -331 619 c-181 340 -330 620
-330 622 0 16 319 124 450 151 230 49 547 59 781 25z"/>
</g>
</svg>
